<svg xmlns="http://www.w3.org/2000/svg" xmlns:xlink="http://www.w3.org/1999/xlink" width="100" zoomAndPan="magnify" viewBox="0 0 75 74.999997" height="100" preserveAspectRatio="xMidYMid meet" version="1.0"><defs><g/><clipPath id="0c5eac4f46"><path d="M 26.820312 11 L 35 11 L 35 23 L 26.820312 23 Z M 26.820312 11 " clip-rule="nonzero"/></clipPath><clipPath id="b0c9ae07d2"><path d="M 40 12 L 47.820312 12 L 47.820312 23 L 40 23 Z M 40 12 " clip-rule="nonzero"/></clipPath><clipPath id="7e0e93a827"><path d="M 40 11 L 47.820312 11 L 47.820312 23 L 40 23 Z M 40 11 " clip-rule="nonzero"/></clipPath><clipPath id="7f24880613"><path d="M 33 9.140625 L 41 9.140625 L 41 25.640625 L 33 25.640625 Z M 33 9.140625 " clip-rule="nonzero"/></clipPath><clipPath id="c8a168f1ba"><path d="M 33 9.140625 L 42 9.140625 L 42 25.640625 L 33 25.640625 Z M 33 9.140625 " clip-rule="nonzero"/></clipPath></defs><path stroke-linecap="butt" transform="matrix(0.29325, 0, 0, 0.29325, -13.818736, 26.4485)" fill="none" stroke-linejoin="miter" d="M 68.67538 17.678822 L 68.67538 15.987112 L 97.620935 15.987112 L 97.620935 25.231574 L 95.609532 25.231574 C 95.090031 25.231574 94.663773 25.045086 94.34408 24.685431 C 94.024387 24.325776 93.851219 23.872878 93.811258 23.326735 L 93.811258 23.273453 C 93.811258 23.166888 93.811258 22.940439 93.784617 22.580784 C 93.757976 22.207809 93.718014 21.688307 93.678052 20.995639 C 93.664732 20.516099 93.638091 20.04988 93.598129 19.596981 L 77.38702 19.596981 L 77.38702 33.783367 L 92.679011 33.783367 L 92.679011 37.339953 L 77.38702 37.339953 L 77.38702 52.005879 L 93.598129 52.005879 C 93.62477 51.899314 93.62477 51.79275 93.62477 51.686186 C 93.664732 51.286569 93.691373 50.980197 93.704693 50.767068 C 93.744655 50.234246 93.757976 49.674783 93.757976 49.088678 C 93.757976 48.928832 93.771296 48.755665 93.784617 48.569177 L 93.811258 48.356048 C 93.851219 47.769944 94.024387 47.290404 94.330759 46.917429 C 94.637132 46.557774 95.06339 46.371286 95.609532 46.371286 L 97.620935 46.371286 L 97.620935 55.65571 L 68.728662 55.65571 L 68.728662 53.910717 C 68.728662 53.431178 68.888509 53.058202 69.194882 52.76515 C 69.501254 52.472098 69.900871 52.312252 70.380411 52.27229 L 70.979835 52.27229 C 71.033118 52.27229 71.192964 52.258969 71.432734 52.245649 C 71.712466 52.232328 71.965556 52.219008 72.178685 52.219008 C 72.231967 52.219008 72.285249 52.219008 72.365173 52.219008 C 72.431775 52.219008 72.525019 52.219008 72.631584 52.205687 C 72.738148 52.192367 72.844712 52.192367 72.964597 52.192367 C 73.017879 52.192367 73.084482 52.192367 73.137764 52.192367 C 73.204367 52.192367 73.257649 52.192367 73.28429 52.192367 L 73.28429 19.410493 C 73.177726 19.410493 73.071162 19.410493 72.964597 19.410493 C 72.578301 19.383852 72.31189 19.383852 72.178685 19.383852 C 72.098762 19.383852 72.032159 19.383852 71.952236 19.383852 C 71.872312 19.383852 71.792389 19.370532 71.712466 19.370532 C 71.632542 19.357211 71.539298 19.357211 71.432734 19.357211 C 71.366131 19.357211 71.299529 19.343891 71.219605 19.343891 C 71.153003 19.33057 71.09972 19.33057 71.059759 19.33057 C 71.033118 19.33057 71.006476 19.33057 70.979835 19.33057 L 70.380411 19.33057 C 69.87423 19.290608 69.474613 19.130762 69.15492 18.83771 C 68.835227 18.544658 68.67538 18.158362 68.67538 17.678822 Z M 102.496256 55.003003 L 102.496256 53.910717 C 102.496256 53.431178 102.656103 53.058202 102.962476 52.76515 C 103.268848 52.472098 103.668465 52.312252 104.134684 52.27229 L 105.466739 52.27229 C 105.573303 52.27229 105.786432 52.258969 106.119446 52.219008 C 106.21269 52.219008 106.305934 52.205687 106.412498 52.192367 L 106.412498 30.799563 L 106.385857 30.799563 C 106.372536 30.799563 106.359216 30.799563 106.332575 30.799563 C 106.199369 30.772922 106.066164 30.772922 105.97292 30.772922 C 105.866355 30.772922 105.786432 30.772922 105.73315 30.772922 L 104.907276 30.772922 L 104.560942 30.71964 L 104.134684 30.71964 C 103.668465 30.679679 103.268848 30.519832 102.962476 30.22678 C 102.656103 29.933728 102.496256 29.547432 102.496256 29.067892 L 102.496256 27.376182 L 108.477183 27.376182 C 108.610389 27.376182 108.730274 27.389503 108.850159 27.416144 C 108.983364 27.442785 109.103249 27.482747 109.223134 27.536029 C 109.343019 27.589311 109.462904 27.669234 109.569468 27.775799 C 109.782597 27.988927 109.915803 28.268659 109.969085 28.614993 L 109.969085 28.668276 L 110.10229 31.105936 C 110.435304 30.759602 110.781638 30.426588 111.127973 30.120215 C 111.487627 29.813843 111.860603 29.520791 112.246899 29.241059 C 112.633195 28.974648 113.032811 28.694917 113.459069 28.441826 C 115.19074 27.442785 117.135541 26.949925 119.29347 26.949925 C 120.878615 26.949925 122.263952 27.203015 123.449481 27.695875 C 123.742533 27.81576 124.035585 27.962286 124.315317 28.122133 C 124.608369 28.28198 124.87478 28.441826 125.127871 28.614993 C 125.380961 28.801481 125.620731 28.987969 125.860501 29.201097 C 126.08695 29.414226 126.300079 29.640676 126.513208 29.867125 C 127.29912 30.772922 127.898545 31.91849 128.324803 33.330468 C 128.73774 34.742446 128.950868 36.221027 128.950868 37.752891 L 128.950868 52.192367 C 128.99083 52.192367 129.004151 52.192367 129.004151 52.192367 C 129.110715 52.192367 129.203959 52.192367 129.283882 52.205687 C 129.363805 52.219008 129.430408 52.219008 129.48369 52.219008 C 129.536973 52.219008 129.576934 52.219008 129.590255 52.219008 C 129.750101 52.219008 129.936589 52.232328 130.149718 52.245649 L 130.416129 52.27229 L 131.148759 52.27229 C 131.641619 52.312252 132.054556 52.472098 132.37425 52.76515 C 132.693943 53.058202 132.853789 53.431178 132.853789 53.910717 L 132.853789 55.65571 L 125.007986 55.65571 L 125.007986 37.752891 C 125.007986 35.395153 124.475164 33.543597 123.42284 32.198221 C 122.437119 30.95941 120.838653 30.346665 118.627442 30.346665 C 118.054659 30.346665 117.508516 30.386626 116.989015 30.493191 C 116.456193 30.586435 115.950012 30.732961 115.457151 30.906128 C 114.977612 31.092616 114.498072 31.319065 114.045173 31.585476 C 113.352504 32.025054 112.699798 32.531235 112.060411 33.104019 C 111.421025 33.663482 110.834921 34.302868 110.288778 35.008857 L 110.288778 52.192367 C 110.315419 52.192367 110.34206 52.192367 110.368701 52.192367 C 110.501907 52.205687 110.621792 52.219008 110.728356 52.219008 C 110.834921 52.219008 110.914844 52.219008 110.968126 52.219008 C 111.127973 52.219008 111.31446 52.232328 111.527589 52.245649 L 111.794 52.27229 L 112.566592 52.27229 C 113.032811 52.312252 113.432428 52.472098 113.7388 52.76515 C 114.045173 53.058202 114.20502 53.431178 114.20502 53.910717 L 114.20502 55.65571 L 102.496256 55.65571 Z M 135.411335 57.813639 C 135.411335 56.241814 135.944157 54.856477 136.99648 53.670948 C 137.729111 52.885035 138.634908 52.219008 139.727193 51.686186 C 139.327577 51.446416 138.994563 51.166684 138.728152 50.873632 C 138.128727 50.180964 137.822355 49.248525 137.822355 48.062996 C 137.822355 47.969752 137.822355 47.889829 137.835675 47.809906 C 137.848996 47.729982 137.848996 47.650059 137.862316 47.570136 C 137.875637 47.490212 137.875637 47.410289 137.888957 47.330366 C 137.902278 47.250443 137.915598 47.170519 137.928919 47.090596 C 137.94224 47.010673 137.968881 46.930749 137.995522 46.850826 C 138.022163 46.770903 138.048804 46.7043 138.088766 46.624377 C 138.155368 46.424568 138.248612 46.198119 138.368497 45.98499 C 138.475062 45.758541 138.621588 45.532092 138.781434 45.279001 C 139.021204 44.879385 139.4075 44.439807 139.940322 43.986908 C 139.980284 43.946946 140.020245 43.906985 140.073527 43.867023 C 140.12681 43.813741 140.180092 43.773779 140.233374 43.733817 C 140.286656 43.680535 140.339938 43.640574 140.393221 43.600612 C 140.446503 43.56065 140.499785 43.520689 140.553067 43.480727 C 139.593988 42.761417 138.821396 41.882261 138.221971 40.856579 C 137.449379 39.497883 137.049763 37.952699 137.049763 36.221027 C 137.049763 34.968896 137.316174 33.703443 137.822355 32.41135 C 138.035483 31.838566 138.315215 31.319065 138.67487 30.826205 C 139.021204 30.320024 139.447462 29.867125 139.940322 29.440867 C 140.846119 28.641634 141.925084 28.015569 143.203857 27.56267 C 144.469309 27.123092 145.854646 26.896642 147.359868 26.896642 C 148.545397 26.896642 149.677644 27.056489 150.769929 27.349541 C 151.28943 27.469426 151.76897 27.642593 152.23519 27.842401 C 152.688088 28.04221 153.127666 28.268659 153.527283 28.521749 L 160.946829 28.521749 L 160.946829 30.106895 C 160.946829 30.399947 160.866906 30.666358 160.707059 30.892807 C 160.453969 31.239142 160.080993 31.425629 159.561492 31.478912 L 156.551048 31.718681 C 156.630971 31.865207 156.710894 31.998413 156.777497 32.131618 C 156.830779 32.264824 156.897382 32.398029 156.963985 32.531235 C 157.017267 32.66444 157.070549 32.784325 157.123831 32.917531 C 157.163793 33.037416 157.203755 33.157301 157.230396 33.277186 C 157.363601 33.730084 157.456845 34.182983 157.523448 34.675843 C 157.603371 35.155383 157.630012 35.674885 157.630012 36.221027 C 157.630012 37.606364 157.376922 38.871817 156.870741 40.030705 C 156.351239 41.216233 155.64525 42.201954 154.752773 42.974546 C 153.886938 43.733817 152.794653 44.359883 151.489239 44.826102 C 151.089622 44.972629 150.663365 45.092513 150.223786 45.185757 C 149.770888 45.279001 149.317989 45.358924 148.838449 45.398886 C 148.358909 45.438848 147.866049 45.465489 147.359868 45.465489 C 146.560635 45.465489 145.828005 45.412207 145.135336 45.318963 C 144.442668 45.225719 143.803281 45.065872 143.203857 44.852744 C 143.163895 44.892705 143.137254 44.919346 143.123933 44.932667 C 142.857522 45.092513 142.617753 45.265681 142.417944 45.465489 C 142.218136 45.665297 142.031648 45.851785 141.871802 46.051593 C 141.538788 46.544453 141.378941 46.997352 141.378941 47.396969 C 141.378941 47.969752 141.552109 48.39601 141.925084 48.702382 C 142.31138 49.008755 142.950766 49.275166 143.829923 49.488295 C 144.402706 49.6215 145.375106 49.714744 146.747123 49.781347 C 147.120098 49.794668 147.706203 49.834629 148.492115 49.887911 C 149.278027 49.941194 149.864132 49.981155 150.277069 49.994476 C 151.449277 50.047758 152.634806 50.154322 153.820335 50.314169 C 154.459721 50.420733 155.045826 50.540618 155.591968 50.700465 C 156.138111 50.846991 156.644292 51.033479 157.110511 51.259928 C 158.216116 51.79275 159.02867 52.432136 159.534851 53.178087 C 160.107634 54.003961 160.387366 55.096246 160.387366 56.454943 C 160.387366 57.680433 160.094314 58.839321 159.50821 59.958247 C 158.962067 61.063853 158.082911 62.076215 156.870741 62.968691 C 155.765135 63.807886 154.446401 64.460593 152.887896 64.953453 C 151.196187 65.486275 149.437874 65.752686 147.599638 65.752686 C 145.748082 65.752686 144.01641 65.539558 142.431265 65.1133 C 140.979325 64.727004 139.727193 64.180861 138.648229 63.474872 C 138.288574 63.221782 137.968881 62.968691 137.675829 62.70228 C 137.382776 62.435869 137.116365 62.169458 136.889916 61.876406 C 136.650146 61.583354 136.437017 61.276982 136.26385 60.957288 C 135.691067 59.918285 135.411335 58.865962 135.411335 57.813639 Z M 139.101127 57.547228 C 139.101127 58.306499 139.247653 58.919244 139.567347 59.398784 C 139.953643 60.011529 140.486465 60.531031 141.165813 60.957288 C 141.991687 61.47679 142.897484 61.836445 143.883205 62.076215 C 145.055413 62.342626 146.307545 62.46251 147.65292 62.46251 C 148.025896 62.46251 148.37223 62.46251 148.705244 62.435869 C 149.038258 62.422549 149.357951 62.395908 149.664323 62.369267 C 149.957375 62.329305 150.250428 62.289343 150.530159 62.249382 C 150.823211 62.196099 151.089622 62.142817 151.329392 62.076215 C 151.862214 61.929689 152.368395 61.756521 152.861255 61.556713 C 153.367436 61.356905 153.820335 61.117135 154.246593 60.850724 C 154.979223 60.397825 155.605289 59.771759 156.098149 58.999168 C 156.524407 58.306499 156.737535 57.60051 156.737535 56.854559 C 156.737535 56.201852 156.551048 55.65571 156.204713 55.216131 C 155.831738 54.749912 155.352198 54.430219 154.752773 54.230411 C 154.539645 54.163808 154.326516 54.097205 154.140028 54.030602 C 153.94022 53.97732 153.767053 53.910717 153.593886 53.857435 C 153.420718 53.804153 153.260872 53.764191 153.101025 53.72423 C 152.941179 53.697589 152.794653 53.670948 152.661447 53.644306 C 152.541562 53.630986 152.408357 53.617665 152.288472 53.591024 C 151.595803 53.524422 150.596762 53.457819 149.291348 53.377895 C 148.918373 53.364575 148.385551 53.337934 147.706203 53.311293 C 147.346548 53.284652 147.040175 53.271331 146.787085 53.258011 C 146.533994 53.231369 146.320865 53.231369 146.134378 53.231369 C 145.135336 53.178087 144.176257 53.071523 143.28378 52.938317 C 142.79092 53.111484 142.204815 53.377895 141.552109 53.72423 C 141.245736 53.884076 140.806158 54.243731 140.260015 54.816515 C 139.88704 55.162849 139.607308 55.589107 139.4075 56.055326 C 139.194371 56.601469 139.101127 57.107649 139.101127 57.547228 Z M 140.766196 36.274309 C 140.766196 37.233389 140.899402 38.072584 141.192454 38.818534 C 141.325659 39.19151 141.498826 39.524524 141.711955 39.844217 C 141.925084 40.150589 142.178174 40.430321 142.457906 40.670091 C 143.097292 41.256195 143.789961 41.682453 144.549232 41.948864 C 145.401747 42.241916 146.334186 42.388442 147.359868 42.388442 C 147.533035 42.388442 147.706203 42.388442 147.89269 42.375121 C 148.065857 42.375121 148.239025 42.361801 148.398871 42.33516 C 148.572038 42.321839 148.731885 42.295198 148.891731 42.268557 C 149.051578 42.241916 149.211425 42.215275 149.357951 42.188634 C 149.504477 42.161993 149.664323 42.135351 149.810849 42.09539 C 149.957375 42.042108 150.103902 42.002146 150.250428 41.948864 C 151.023019 41.682453 151.689047 41.269516 152.261831 40.696732 C 152.554883 40.417 152.807973 40.123948 153.007781 39.817576 C 153.22091 39.497883 153.394077 39.164869 153.527283 38.818534 C 153.833655 38.019302 153.980182 37.153466 153.980182 36.221027 C 153.980182 35.368512 153.833655 34.542638 153.527283 33.703443 C 153.46068 33.530276 153.380757 33.357109 153.300833 33.197262 C 153.22091 33.050736 153.127666 32.89089 153.021102 32.731043 C 152.914538 32.571197 152.794653 32.41135 152.661447 32.264824 C 152.541562 32.118298 152.395036 31.971772 152.23519 31.825246 C 152.022061 31.625438 151.808932 31.465591 151.582483 31.305744 C 151.356033 31.159218 151.142904 31.026013 150.903135 30.892807 C 150.676685 30.772922 150.423595 30.666358 150.170504 30.559794 C 149.757567 30.413268 149.317989 30.306703 148.838449 30.22678 C 148.358909 30.146857 147.866049 30.106895 147.359868 30.106895 C 146.880328 30.106895 146.414109 30.146857 145.934569 30.22678 C 145.46835 30.306703 145.015451 30.426588 144.549232 30.586435 C 143.789961 30.852846 143.097292 31.265783 142.457906 31.825246 C 142.178174 32.091657 141.925084 32.371388 141.711955 32.691082 C 141.498826 32.997454 141.325659 33.330468 141.192454 33.703443 C 141.09921 33.969854 141.019287 34.236265 140.966004 34.515997 C 140.899402 34.782408 140.846119 35.07546 140.819478 35.355192 C 140.779517 35.648244 140.766196 35.954616 140.766196 36.274309 Z M 163.770786 35.79477 C 163.770786 32.704402 164.237005 29.973689 165.182764 27.589311 C 166.168485 25.045086 167.487219 22.913798 169.152288 21.182126 C 170.65751 19.543699 172.722195 18.145041 175.346344 17.026115 C 177.664119 16.053715 180.274947 15.560854 183.192147 15.560854 C 187.015145 15.560854 191.184477 16.479972 195.686823 18.318208 L 196.113081 18.478055 L 196.113081 28.28198 L 194.15496 28.28198 C 193.622138 28.28198 193.19588 28.095492 192.876187 27.735837 C 192.569814 27.376182 192.383327 26.923283 192.356686 26.36382 L 192.356686 26.323859 C 192.356686 26.297218 192.356686 26.270577 192.356686 26.230615 C 192.356686 26.177333 192.343365 26.12405 192.343365 26.057448 C 192.330045 25.977524 192.330045 25.897601 192.330045 25.804357 C 192.330045 25.697793 192.330045 25.591228 192.330045 25.471344 L 192.196839 23.326735 C 192.143557 22.514181 192.090275 21.688307 192.063634 20.835792 C 189.55937 19.796789 186.602208 19.277288 183.192147 19.277288 C 180.914333 19.277288 178.876289 19.650263 177.064694 20.409535 C 175.159856 21.208768 173.548069 22.287732 172.229335 23.673069 C 171.803077 24.139289 171.39014 24.65879 171.003844 25.191612 C 170.617548 25.724434 170.257893 26.310538 169.9382 26.923283 C 169.605187 27.549349 169.312134 28.202056 169.045723 28.881404 C 168.326414 30.919448 167.953438 33.223904 167.953438 35.79477 C 167.953438 38.45888 168.326414 40.816617 169.072365 42.841341 C 169.218891 43.227637 169.365417 43.613932 169.538584 44.013549 C 169.69843 44.399845 169.884918 44.77282 170.084726 45.119155 C 170.271214 45.478809 170.484343 45.825144 170.697472 46.158157 C 170.923921 46.491171 171.15037 46.810864 171.403461 47.130558 C 171.656551 47.450251 171.909642 47.756623 172.176053 48.036355 C 172.84208 48.755665 173.56139 49.381731 174.320661 49.914553 C 175.079933 50.447375 175.892486 50.886953 176.784963 51.233287 C 177.344426 51.486377 177.943851 51.699506 178.569917 51.859353 C 179.195982 52.03252 179.848689 52.152405 180.528037 52.245649 C 181.207385 52.338893 181.913375 52.378854 182.659325 52.378854 C 183.844854 52.378854 185.017063 52.28561 186.175951 52.112443 C 186.429041 52.072482 186.668811 52.03252 186.89526 51.992558 C 187.12171 51.952597 187.361479 51.885994 187.601249 51.819391 C 187.841019 51.752788 188.080789 51.672865 188.307239 51.592942 C 188.547008 51.513019 188.800099 51.433095 189.039869 51.339851 C 189.506088 51.153364 189.932346 50.953555 190.331962 50.753747 C 190.718258 50.540618 191.077913 50.32749 191.397606 50.10104 C 192.316724 49.461654 193.062675 48.87555 193.648779 48.356048 L 193.728702 48.276125 L 193.755343 48.276125 C 193.795305 48.236163 193.835267 48.182881 193.888549 48.116278 L 193.968472 48.036355 L 194.075037 48.009714 C 194.234883 47.91647 194.421371 47.876508 194.661141 47.876508 C 194.967513 47.876508 195.273886 48.023034 195.553618 48.302766 L 196.645903 49.435013 L 197.098801 49.887911 L 196.645903 50.34081 C 195.939914 51.100081 195.047437 51.885994 193.968472 52.725189 C 193.475612 53.071523 192.969431 53.404537 192.44993 53.697589 C 191.930428 54.003961 191.370965 54.270372 190.784861 54.523463 C 189.532729 55.056285 188.267277 55.455901 186.975184 55.708992 C 186.322477 55.842197 185.616487 55.935441 184.870537 55.988723 C 184.124586 56.055326 183.312032 56.081967 182.446197 56.081967 C 179.742125 56.081967 177.224541 55.602427 174.893445 54.630027 C 172.509066 53.644306 170.537625 52.27229 168.9658 50.527298 C 167.287411 48.63578 166.021959 46.491171 165.156123 44.093472 C 164.237005 41.509286 163.770786 38.751932 163.770786 35.79477 Z M 198.737229 41.495965 C 198.737229 39.511203 199.030281 37.539762 199.629706 35.555 C 200.21581 33.676802 201.068325 32.118298 202.173931 30.892807 C 203.292857 29.667317 204.651553 28.694917 206.27666 27.988927 C 207.941729 27.256297 209.766644 26.896642 211.764727 26.896642 C 212.244267 26.896642 212.710486 26.923283 213.176705 26.963245 C 213.642924 27.016527 214.109144 27.08313 214.562042 27.163053 C 215.00162 27.256297 215.454519 27.362862 215.894097 27.509388 C 216.333675 27.655914 216.759933 27.81576 217.15955 27.988927 C 218.837939 28.721558 220.209955 29.707278 221.275599 30.919448 C 221.568652 31.265783 221.848383 31.612117 222.101474 31.971772 C 222.354564 32.331427 222.594334 32.704402 222.807463 33.104019 C 223.020591 33.490315 223.207079 33.87661 223.393567 34.289548 C 223.566734 34.689164 223.71326 35.115422 223.833145 35.555 C 224.032953 36.181066 224.1928 36.807131 224.312685 37.459838 C 224.43257 38.099225 224.525814 38.765252 224.592416 39.4446 C 224.659019 40.123948 224.68566 40.803296 224.68566 41.495965 C 224.68566 43.627253 224.405929 45.598694 223.833145 47.396969 C 223.273682 49.12864 222.421167 50.660503 221.275599 52.005879 C 220.742777 52.618624 220.130032 53.178087 219.437364 53.657627 C 218.758016 54.150487 217.998744 54.576745 217.15955 54.94972 C 215.587725 55.629068 213.78945 55.975403 211.764727 55.975403 C 211.072058 55.975403 210.406031 55.935441 209.779965 55.855518 C 209.140579 55.775594 208.527833 55.66903 207.941729 55.522504 C 207.368945 55.362657 206.809482 55.17617 206.27666 54.94972 C 204.651553 54.243731 203.279537 53.271331 202.14729 52.03252 C 201.081646 50.846991 200.255772 49.301807 199.629706 47.396969 C 199.443218 46.757582 199.270051 46.118196 199.136846 45.465489 C 199.00364 44.812782 198.910396 44.160075 198.830473 43.494047 C 198.76387 42.82802 198.737229 42.161993 198.737229 41.495965 Z M 202.760035 41.495965 C 202.760035 42.09539 202.773356 42.668173 202.826638 43.214316 C 202.8666 43.760458 202.933202 44.27996 203.026446 44.77282 C 203.106369 45.265681 203.212934 45.74522 203.332819 46.184799 C 203.785717 47.703341 204.33186 48.87555 205.011208 49.701424 C 205.7838 50.687144 206.716238 51.419775 207.795203 51.899314 C 208.367987 52.152405 208.994052 52.338893 209.646759 52.472098 C 210.299466 52.605304 211.005455 52.671906 211.764727 52.671906 C 213.203346 52.671906 214.50876 52.418816 215.654327 51.899314 C 215.920738 51.77943 216.173829 51.646224 216.44024 51.486377 C 216.69333 51.339851 216.9331 51.180005 217.15955 51.006838 C 217.399319 50.82035 217.612448 50.620542 217.825577 50.407413 C 218.038706 50.180964 218.238514 49.954514 218.438322 49.701424 C 219.210914 48.755665 219.783698 47.583456 220.130032 46.21144 C 220.503008 44.746179 220.689495 43.174354 220.689495 41.495965 C 220.689495 40.64345 220.636213 39.830896 220.542969 39.058304 C 220.449725 38.285713 220.303199 37.526441 220.130032 36.78049 C 219.956865 36.087822 219.730416 35.448435 219.437364 34.875652 C 219.157632 34.289548 218.824618 33.756726 218.438322 33.277186 C 217.625769 32.238183 216.69333 31.492232 215.654327 31.026013 C 214.548722 30.533152 213.243308 30.293383 211.764727 30.293383 C 210.219543 30.293383 208.900809 30.533152 207.795203 31.026013 C 207.275702 31.265783 206.782841 31.558835 206.316622 31.93181 C 205.850403 32.304786 205.410825 32.757684 205.011208 33.277186 C 204.784759 33.543597 204.57163 33.849969 204.371822 34.196304 C 204.172013 34.542638 203.998846 34.928934 203.812359 35.368512 C 203.639191 35.821411 203.479345 36.28763 203.332819 36.807131 C 203.146331 37.473159 202.999805 38.205789 202.906561 38.978381 C 202.799997 39.750973 202.760035 40.590168 202.760035 41.495965 Z M 227.469655 41.549247 C 227.469655 41.189592 227.469655 40.843258 227.496296 40.496924 C 227.509617 40.150589 227.536258 39.817576 227.562899 39.484562 C 227.58954 39.138228 227.616181 38.818534 227.656143 38.512162 C 227.709425 38.205789 227.749387 37.899417 227.802669 37.593044 C 227.855951 37.273351 227.922554 36.980299 227.989157 36.700567 C 228.06908 36.420836 228.149003 36.127783 228.228926 35.848052 C 228.828351 33.983175 229.640905 32.424671 230.666587 31.185859 C 231.798834 29.813843 233.090927 28.77484 234.556188 28.068851 C 236.128013 27.282938 237.912966 26.896642 239.884408 26.896642 C 240.097536 26.896642 240.310665 26.909963 240.523794 26.909963 C 240.736923 26.923283 240.936731 26.936604 241.136539 26.949925 C 241.349668 26.976566 241.549476 26.989886 241.749285 27.016527 C 241.949093 27.043168 242.148901 27.08313 242.335389 27.109771 C 242.521876 27.149733 242.708364 27.189694 242.894852 27.229656 C 243.08134 27.269618 243.267827 27.3229 243.440994 27.389503 C 243.627482 27.456105 243.81397 27.509388 243.973816 27.57599 C 244.146984 27.642593 244.30683 27.709196 244.466677 27.775799 C 244.626523 27.842401 244.78637 27.922325 244.946217 28.015569 C 245.878655 28.468467 246.73117 29.054571 247.490442 29.760561 L 247.490442 18.318208 C 247.45048 18.318208 247.423839 18.318208 247.410518 18.318208 C 247.104146 18.304888 246.917658 18.291567 246.824414 18.291567 L 245.971899 18.291567 L 245.625565 18.264926 L 245.558962 18.238285 L 245.26591 18.238285 C 244.773049 18.198323 244.360112 18.038477 244.040419 17.745425 C 243.720726 17.452373 243.560879 17.079397 243.560879 16.599857 L 243.560879 14.854865 L 251.353401 14.854865 L 251.353401 52.219008 L 251.886223 52.219008 C 252.019428 52.219008 252.192596 52.232328 252.379083 52.245649 C 252.525609 52.258969 252.618853 52.27229 252.645494 52.27229 L 253.338163 52.27229 C 253.817703 52.312252 254.203999 52.472098 254.523692 52.76515 C 254.830065 53.058202 254.976591 53.431178 254.976591 53.910717 L 254.976591 55.65571 L 249.288716 55.65571 C 248.91574 55.65571 248.609368 55.562466 248.356277 55.349337 C 248.076546 55.109567 247.903379 54.789874 247.850096 54.363616 L 247.850096 54.336975 L 247.70357 51.739468 C 246.704529 52.858394 245.612244 53.764191 244.413395 54.470181 C 243.58752 54.976361 242.681723 55.362657 241.722643 55.615748 C 240.763564 55.855518 239.737882 55.975403 238.645596 55.975403 C 235.10233 55.975403 232.358297 54.763233 230.373535 52.325572 C 228.428735 49.941194 227.469655 46.344645 227.469655 41.549247 Z M 231.439179 41.549247 C 231.439179 45.398886 232.131848 48.222843 233.530505 50.047758 C 234.822599 51.739468 236.780719 52.591983 239.404868 52.591983 C 241.029975 52.591983 242.521876 52.152405 243.880573 51.286569 C 245.212628 50.420733 246.411477 49.261846 247.490442 47.796585 L 247.490442 33.996495 C 247.290633 33.730084 247.090825 33.476994 246.904337 33.237224 C 246.704529 33.010775 246.504721 32.784325 246.304913 32.584517 C 246.105104 32.371388 245.891976 32.184901 245.678847 32.011734 C 245.479039 31.838566 245.252589 31.665399 245.03946 31.518873 C 244.813011 31.372347 244.586562 31.239142 244.333471 31.105936 C 243.201224 30.506511 241.88249 30.213459 240.390588 30.213459 C 239.604676 30.213459 238.898687 30.280062 238.2593 30.413268 C 237.606594 30.546473 237.020489 30.746281 236.500988 30.999372 C 235.981486 31.265783 235.488626 31.598796 235.022407 31.985092 C 234.556188 32.371388 234.12993 32.824287 233.743634 33.330468 C 233.383979 33.756726 233.064286 34.276227 232.771234 34.875652 C 232.478182 35.475076 232.225091 36.154425 232.025283 36.913696 C 231.825475 37.579723 231.678949 38.299033 231.585705 39.071625 C 231.479141 39.844217 231.439179 40.65677 231.439179 41.549247 Z M 257.813868 40.963143 C 257.813868 39.098266 258.10692 37.233389 258.706345 35.368512 C 258.999397 34.542638 259.345731 33.756726 259.758668 33.024095 C 260.171605 32.278145 260.664465 31.585476 261.223928 30.919448 C 262.316214 29.653996 263.661589 28.668276 265.260055 27.988927 C 266.085929 27.629273 266.951765 27.362862 267.857562 27.176374 C 268.77668 26.989886 269.709119 26.896642 270.681519 26.896642 C 271.480752 26.896642 272.240023 26.976566 272.985974 27.109771 C 273.731925 27.256297 274.437914 27.469426 275.130583 27.749158 C 276.52924 28.308621 277.72809 29.121174 278.740452 30.186818 C 279.699531 31.159218 280.485444 32.477953 281.084868 34.156342 C 281.391241 34.955575 281.61769 35.79477 281.750896 36.673926 C 281.897422 37.553082 281.964025 38.4722 281.964025 39.43128 C 281.964025 39.897499 281.85746 40.297116 281.644331 40.616809 C 281.431203 40.949822 281.071548 41.12299 280.538726 41.12299 L 261.730109 41.12299 C 261.730109 42.09539 261.783392 42.987867 261.903276 43.813741 C 262.023161 44.626294 262.196329 45.398886 262.422778 46.131516 C 262.875677 47.623418 263.501742 48.835588 264.300975 49.754706 C 264.580707 50.074399 264.873759 50.367451 265.180132 50.633862 C 265.473184 50.900273 265.792877 51.126723 266.125891 51.339851 C 266.458905 51.55298 266.818559 51.739468 267.191535 51.899314 C 267.79096 52.165725 268.403705 52.365534 269.056412 52.485419 C 269.695798 52.605304 270.361826 52.671906 271.054494 52.671906 C 272.293305 52.671906 273.398911 52.51206 274.357991 52.192367 C 275.490237 51.819391 276.28947 51.513019 276.742369 51.259928 C 276.928857 51.180005 277.088703 51.086761 277.24855 51.006838 C 277.408397 50.913594 277.554923 50.83367 277.674808 50.753747 C 277.794692 50.673824 277.914577 50.593901 278.021142 50.513977 C 278.127706 50.434054 278.20763 50.367451 278.287553 50.314169 C 278.394117 50.220925 278.487361 50.154322 278.580605 50.08772 C 278.660528 50.021117 278.767093 49.967835 278.860336 49.901232 C 278.966901 49.834629 279.086786 49.794668 279.19335 49.768026 C 279.313235 49.741385 279.43312 49.728065 279.553005 49.728065 C 279.766134 49.728065 279.965942 49.781347 280.16575 49.874591 C 280.352238 49.967835 280.512085 50.10104 280.64529 50.260887 L 281.324638 51.113402 L 281.670972 51.526339 L 281.351279 51.925956 C 280.911701 52.498739 280.285635 53.044882 279.446441 53.591024 C 278.687169 54.097205 277.847975 54.510142 276.902216 54.869797 C 275.956457 55.202811 274.984056 55.482542 273.998336 55.682351 C 273.145821 55.882159 272.093497 55.975403 270.841365 55.975403 C 268.790001 55.975403 267.018368 55.65571 265.513146 55.003003 C 263.874718 54.270372 262.502701 53.284652 261.383775 52.03252 C 260.278169 50.767068 259.399013 49.181922 258.759627 47.290404 C 258.453254 46.344645 258.213484 45.332283 258.053638 44.29328 C 257.893791 43.240957 257.813868 42.122031 257.813868 40.963143 Z M 261.943238 38.125866 L 278.287553 38.125866 C 278.234271 37.073542 278.047783 36.061181 277.72809 35.088781 C 277.421717 34.169663 276.915536 33.277186 276.196226 32.437991 C 275.55684 31.705361 274.770928 31.159218 273.838489 30.772922 C 272.839448 30.359985 271.813766 30.160177 270.734801 30.160177 C 270.082094 30.160177 269.469349 30.213459 268.883245 30.320024 C 268.29714 30.426588 267.737677 30.573114 267.218176 30.772922 C 266.205814 31.159218 265.326658 31.732002 264.594028 32.491273 C 264.327617 32.757684 264.087847 33.024095 263.861397 33.303827 C 263.648269 33.596879 263.43514 33.889931 263.248652 34.196304 C 263.062164 34.502676 262.902318 34.83569 262.769112 35.195345 C 262.396137 36.087822 262.116405 37.073542 261.943238 38.125866 Z M 261.943238 38.125866 " stroke="#000000" stroke-width="4.06848" stroke-opacity="1" stroke-miterlimit="4"/><g fill="#ffffff" fill-opacity="1"><g transform="translate(5.723621, 42.577244)"><g><path d="M 0.59375 -10.9375 L 0.59375 -11.4375 L 9.09375 -11.4375 L 9.09375 -8.734375 L 8.5 -8.734375 C 8.34375 -8.734375 8.21875 -8.785156 8.125 -8.890625 C 8.03125 -8.992188 7.976562 -9.125 7.96875 -9.28125 L 7.96875 -9.296875 C 7.96875 -9.328125 7.960938 -9.394531 7.953125 -9.5 C 7.953125 -9.613281 7.945312 -9.769531 7.9375 -9.96875 C 7.925781 -10.113281 7.914062 -10.253906 7.90625 -10.390625 L 3.15625 -10.390625 L 3.15625 -6.21875 L 7.640625 -6.21875 L 7.640625 -5.1875 L 3.15625 -5.1875 L 3.15625 -0.875 L 7.90625 -0.875 C 7.914062 -0.90625 7.921875 -0.9375 7.921875 -0.96875 C 7.929688 -1.09375 7.9375 -1.1875 7.9375 -1.25 C 7.945312 -1.394531 7.953125 -1.554688 7.953125 -1.734375 C 7.953125 -1.773438 7.953125 -1.828125 7.953125 -1.890625 L 7.96875 -1.953125 C 7.976562 -2.117188 8.023438 -2.253906 8.109375 -2.359375 C 8.203125 -2.472656 8.332031 -2.53125 8.5 -2.53125 L 9.09375 -2.53125 L 9.09375 0.1875 L 0.609375 0.1875 L 0.609375 -0.3125 C 0.609375 -0.457031 0.65625 -0.570312 0.75 -0.65625 C 0.84375 -0.738281 0.957031 -0.785156 1.09375 -0.796875 L 1.28125 -0.796875 C 1.289062 -0.796875 1.332031 -0.800781 1.40625 -0.8125 C 1.488281 -0.8125 1.5625 -0.8125 1.625 -0.8125 C 1.632812 -0.8125 1.648438 -0.8125 1.671875 -0.8125 C 1.691406 -0.8125 1.71875 -0.8125 1.75 -0.8125 C 1.78125 -0.820312 1.816406 -0.828125 1.859375 -0.828125 C 1.867188 -0.828125 1.882812 -0.828125 1.90625 -0.828125 C 1.925781 -0.828125 1.941406 -0.828125 1.953125 -0.828125 L 1.953125 -10.4375 C 1.921875 -10.4375 1.890625 -10.4375 1.859375 -10.4375 C 1.742188 -10.445312 1.664062 -10.453125 1.625 -10.453125 C 1.601562 -10.453125 1.578125 -10.453125 1.546875 -10.453125 C 1.523438 -10.453125 1.503906 -10.453125 1.484375 -10.453125 C 1.460938 -10.453125 1.4375 -10.453125 1.40625 -10.453125 C 1.382812 -10.453125 1.363281 -10.453125 1.34375 -10.453125 C 1.320312 -10.460938 1.304688 -10.46875 1.296875 -10.46875 C 1.285156 -10.46875 1.28125 -10.46875 1.28125 -10.46875 L 1.09375 -10.46875 C 0.945312 -10.476562 0.828125 -10.523438 0.734375 -10.609375 C 0.640625 -10.691406 0.59375 -10.800781 0.59375 -10.9375 Z M 0.59375 -10.9375 "/></g></g></g><g fill="#ffffff" fill-opacity="1"><g transform="translate(15.609404, 42.577244)"><g><path d="M 0.625 0 L 0.625 -0.3125 C 0.625 -0.457031 0.671875 -0.570312 0.765625 -0.65625 C 0.859375 -0.738281 0.972656 -0.785156 1.109375 -0.796875 L 1.5 -0.796875 C 1.53125 -0.796875 1.59375 -0.800781 1.6875 -0.8125 C 1.71875 -0.8125 1.75 -0.816406 1.78125 -0.828125 L 1.78125 -7.09375 L 1.765625 -7.09375 C 1.765625 -7.09375 1.757812 -7.09375 1.75 -7.09375 C 1.707031 -7.101562 1.671875 -7.109375 1.640625 -7.109375 C 1.609375 -7.109375 1.585938 -7.109375 1.578125 -7.109375 L 1.328125 -7.109375 L 1.234375 -7.125 L 1.109375 -7.125 C 0.972656 -7.132812 0.859375 -7.179688 0.765625 -7.265625 C 0.671875 -7.347656 0.625 -7.460938 0.625 -7.609375 L 0.625 -8.09375 L 2.390625 -8.09375 C 2.421875 -8.09375 2.453125 -8.085938 2.484375 -8.078125 C 2.523438 -8.078125 2.5625 -8.066406 2.59375 -8.046875 C 2.632812 -8.035156 2.671875 -8.015625 2.703125 -7.984375 C 2.765625 -7.921875 2.800781 -7.835938 2.8125 -7.734375 L 2.8125 -7.71875 L 2.859375 -7 C 2.953125 -7.101562 3.050781 -7.203125 3.15625 -7.296875 C 3.257812 -7.390625 3.367188 -7.472656 3.484375 -7.546875 C 3.597656 -7.628906 3.71875 -7.710938 3.84375 -7.796875 C 4.351562 -8.078125 4.921875 -8.21875 5.546875 -8.21875 C 6.015625 -8.21875 6.421875 -8.144531 6.765625 -8 C 6.859375 -7.96875 6.945312 -7.925781 7.03125 -7.875 C 7.113281 -7.832031 7.191406 -7.785156 7.265625 -7.734375 C 7.335938 -7.679688 7.40625 -7.625 7.46875 -7.5625 C 7.539062 -7.5 7.609375 -7.4375 7.671875 -7.375 C 7.898438 -7.101562 8.078125 -6.765625 8.203125 -6.359375 C 8.328125 -5.941406 8.390625 -5.507812 8.390625 -5.0625 L 8.390625 -0.828125 C 8.398438 -0.828125 8.40625 -0.828125 8.40625 -0.828125 C 8.4375 -0.828125 8.460938 -0.820312 8.484375 -0.8125 C 8.503906 -0.8125 8.519531 -0.8125 8.53125 -0.8125 C 8.550781 -0.8125 8.566406 -0.8125 8.578125 -0.8125 C 8.617188 -0.8125 8.671875 -0.8125 8.734375 -0.8125 L 8.8125 -0.796875 L 9.03125 -0.796875 C 9.175781 -0.785156 9.296875 -0.738281 9.390625 -0.65625 C 9.484375 -0.570312 9.53125 -0.457031 9.53125 -0.3125 L 9.53125 0.1875 L 7.234375 0.1875 L 7.234375 -5.0625 C 7.234375 -5.75 7.078125 -6.289062 6.765625 -6.6875 C 6.472656 -7.050781 6.003906 -7.234375 5.359375 -7.234375 C 5.191406 -7.234375 5.03125 -7.21875 4.875 -7.1875 C 4.71875 -7.15625 4.566406 -7.113281 4.421875 -7.0625 C 4.285156 -7.007812 4.148438 -6.941406 4.015625 -6.859375 C 3.816406 -6.734375 3.625 -6.585938 3.4375 -6.421875 C 3.25 -6.253906 3.070312 -6.066406 2.90625 -5.859375 L 2.90625 -0.828125 C 2.914062 -0.828125 2.925781 -0.828125 2.9375 -0.828125 C 2.976562 -0.816406 3.015625 -0.8125 3.046875 -0.8125 C 3.078125 -0.8125 3.097656 -0.8125 3.109375 -0.8125 C 3.160156 -0.8125 3.21875 -0.8125 3.28125 -0.8125 L 3.359375 -0.796875 L 3.578125 -0.796875 C 3.722656 -0.785156 3.835938 -0.738281 3.921875 -0.65625 C 4.015625 -0.570312 4.0625 -0.457031 4.0625 -0.3125 L 4.0625 0.1875 L 0.625 0.1875 Z M 0.625 0 "/></g></g></g><g fill="#ffffff" fill-opacity="1"><g transform="translate(25.61167, 42.577244)"><g><path d="M 0.28125 0.828125 C 0.28125 0.359375 0.4375 -0.046875 0.75 -0.390625 C 0.957031 -0.617188 1.222656 -0.8125 1.546875 -0.96875 C 1.421875 -1.039062 1.320312 -1.125 1.25 -1.21875 C 1.070312 -1.414062 0.984375 -1.6875 0.984375 -2.03125 C 0.984375 -2.0625 0.984375 -2.085938 0.984375 -2.109375 C 0.992188 -2.128906 1 -2.148438 1 -2.171875 C 1 -2.203125 1 -2.226562 1 -2.25 C 1.007812 -2.269531 1.015625 -2.289062 1.015625 -2.3125 C 1.023438 -2.34375 1.03125 -2.367188 1.03125 -2.390625 C 1.039062 -2.410156 1.050781 -2.429688 1.0625 -2.453125 C 1.082031 -2.515625 1.109375 -2.578125 1.140625 -2.640625 C 1.179688 -2.703125 1.222656 -2.769531 1.265625 -2.84375 C 1.335938 -2.96875 1.453125 -3.097656 1.609375 -3.234375 C 1.617188 -3.242188 1.628906 -3.253906 1.640625 -3.265625 C 1.660156 -3.273438 1.675781 -3.285156 1.6875 -3.296875 C 1.707031 -3.316406 1.722656 -3.332031 1.734375 -3.34375 C 1.753906 -3.351562 1.769531 -3.363281 1.78125 -3.375 C 1.5 -3.59375 1.273438 -3.847656 1.109375 -4.140625 C 0.878906 -4.546875 0.765625 -5 0.765625 -5.5 C 0.765625 -5.875 0.835938 -6.25 0.984375 -6.625 C 1.046875 -6.789062 1.128906 -6.945312 1.234375 -7.09375 C 1.335938 -7.238281 1.460938 -7.375 1.609375 -7.5 C 1.867188 -7.726562 2.1875 -7.910156 2.5625 -8.046875 C 2.9375 -8.171875 3.34375 -8.234375 3.78125 -8.234375 C 4.125 -8.234375 4.457031 -8.191406 4.78125 -8.109375 C 4.9375 -8.066406 5.078125 -8.015625 5.203125 -7.953125 C 5.335938 -7.898438 5.46875 -7.835938 5.59375 -7.765625 L 7.765625 -7.765625 L 7.765625 -7.296875 C 7.765625 -7.210938 7.742188 -7.132812 7.703125 -7.0625 C 7.628906 -6.96875 7.515625 -6.910156 7.359375 -6.890625 L 6.484375 -6.828125 C 6.503906 -6.785156 6.523438 -6.742188 6.546875 -6.703125 C 6.566406 -6.660156 6.582031 -6.617188 6.59375 -6.578125 C 6.613281 -6.546875 6.628906 -6.507812 6.640625 -6.46875 C 6.648438 -6.4375 6.660156 -6.40625 6.671875 -6.375 C 6.710938 -6.238281 6.742188 -6.097656 6.765625 -5.953125 C 6.785156 -5.816406 6.796875 -5.664062 6.796875 -5.5 C 6.796875 -5.101562 6.722656 -4.734375 6.578125 -4.390625 C 6.421875 -4.046875 6.210938 -3.757812 5.953125 -3.53125 C 5.691406 -3.300781 5.375 -3.117188 5 -2.984375 C 4.875 -2.941406 4.742188 -2.90625 4.609375 -2.875 C 4.484375 -2.84375 4.347656 -2.820312 4.203125 -2.8125 C 4.066406 -2.800781 3.925781 -2.796875 3.78125 -2.796875 C 3.550781 -2.796875 3.332031 -2.804688 3.125 -2.828125 C 2.925781 -2.859375 2.738281 -2.90625 2.5625 -2.96875 C 2.550781 -2.957031 2.546875 -2.953125 2.546875 -2.953125 C 2.460938 -2.898438 2.390625 -2.84375 2.328125 -2.78125 C 2.273438 -2.726562 2.222656 -2.675781 2.171875 -2.625 C 2.078125 -2.476562 2.03125 -2.347656 2.03125 -2.234375 C 2.03125 -2.066406 2.082031 -1.9375 2.1875 -1.84375 C 2.300781 -1.75 2.488281 -1.671875 2.75 -1.609375 C 2.914062 -1.578125 3.203125 -1.550781 3.609375 -1.53125 C 3.710938 -1.519531 3.878906 -1.507812 4.109375 -1.5 C 4.335938 -1.476562 4.515625 -1.46875 4.640625 -1.46875 C 4.984375 -1.445312 5.328125 -1.414062 5.671875 -1.375 C 5.859375 -1.34375 6.03125 -1.304688 6.1875 -1.265625 C 6.351562 -1.222656 6.503906 -1.164062 6.640625 -1.09375 C 6.960938 -0.9375 7.203125 -0.75 7.359375 -0.53125 C 7.523438 -0.289062 7.609375 0.0234375 7.609375 0.421875 C 7.609375 0.785156 7.519531 1.128906 7.34375 1.453125 C 7.1875 1.773438 6.929688 2.070312 6.578125 2.34375 C 6.253906 2.582031 5.863281 2.773438 5.40625 2.921875 C 4.90625 3.078125 4.390625 3.15625 3.859375 3.15625 C 3.304688 3.15625 2.800781 3.09375 2.34375 2.96875 C 1.914062 2.851562 1.546875 2.691406 1.234375 2.484375 C 1.128906 2.410156 1.03125 2.332031 0.9375 2.25 C 0.851562 2.175781 0.773438 2.097656 0.703125 2.015625 C 0.640625 1.929688 0.582031 1.84375 0.53125 1.75 C 0.363281 1.445312 0.28125 1.140625 0.28125 0.828125 Z M 1.359375 0.75 C 1.359375 0.96875 1.40625 1.148438 1.5 1.296875 C 1.613281 1.472656 1.769531 1.625 1.96875 1.75 C 2.207031 1.894531 2.472656 2.003906 2.765625 2.078125 C 3.109375 2.148438 3.476562 2.1875 3.875 2.1875 C 3.976562 2.1875 4.078125 2.179688 4.171875 2.171875 C 4.273438 2.171875 4.367188 2.164062 4.453125 2.15625 C 4.546875 2.144531 4.632812 2.132812 4.71875 2.125 C 4.800781 2.113281 4.878906 2.097656 4.953125 2.078125 C 5.109375 2.035156 5.253906 1.984375 5.390625 1.921875 C 5.535156 1.859375 5.671875 1.789062 5.796875 1.71875 C 6.015625 1.582031 6.195312 1.398438 6.34375 1.171875 C 6.46875 0.972656 6.53125 0.765625 6.53125 0.546875 C 6.53125 0.347656 6.476562 0.1875 6.375 0.0625 C 6.269531 -0.0703125 6.128906 -0.164062 5.953125 -0.21875 C 5.890625 -0.238281 5.828125 -0.257812 5.765625 -0.28125 C 5.710938 -0.300781 5.660156 -0.316406 5.609375 -0.328125 C 5.554688 -0.347656 5.503906 -0.363281 5.453125 -0.375 C 5.410156 -0.382812 5.367188 -0.390625 5.328125 -0.390625 C 5.296875 -0.398438 5.265625 -0.40625 5.234375 -0.40625 C 5.023438 -0.425781 4.726562 -0.445312 4.34375 -0.46875 C 4.238281 -0.476562 4.085938 -0.488281 3.890625 -0.5 C 3.785156 -0.5 3.691406 -0.5 3.609375 -0.5 C 3.535156 -0.507812 3.472656 -0.515625 3.421875 -0.515625 C 3.128906 -0.535156 2.851562 -0.566406 2.59375 -0.609375 C 2.445312 -0.554688 2.273438 -0.476562 2.078125 -0.375 C 1.984375 -0.320312 1.859375 -0.210938 1.703125 -0.046875 C 1.585938 0.046875 1.503906 0.164062 1.453125 0.3125 C 1.390625 0.46875 1.359375 0.613281 1.359375 0.75 Z M 1.84375 -5.484375 C 1.84375 -5.210938 1.882812 -4.96875 1.96875 -4.75 C 2.007812 -4.632812 2.0625 -4.53125 2.125 -4.4375 C 2.1875 -4.351562 2.257812 -4.273438 2.34375 -4.203125 C 2.53125 -4.035156 2.734375 -3.910156 2.953125 -3.828125 C 3.203125 -3.742188 3.476562 -3.703125 3.78125 -3.703125 C 3.832031 -3.703125 3.882812 -3.703125 3.9375 -3.703125 C 3.988281 -3.703125 4.035156 -3.703125 4.078125 -3.703125 C 4.128906 -3.710938 4.175781 -3.722656 4.21875 -3.734375 C 4.269531 -3.742188 4.316406 -3.75 4.359375 -3.75 C 4.410156 -3.757812 4.457031 -3.769531 4.5 -3.78125 C 4.539062 -3.800781 4.582031 -3.816406 4.625 -3.828125 C 4.851562 -3.910156 5.050781 -4.03125 5.21875 -4.1875 C 5.300781 -4.269531 5.375 -4.359375 5.4375 -4.453125 C 5.5 -4.546875 5.550781 -4.644531 5.59375 -4.75 C 5.675781 -4.976562 5.71875 -5.226562 5.71875 -5.5 C 5.71875 -5.75 5.675781 -6 5.59375 -6.25 C 5.570312 -6.300781 5.546875 -6.347656 5.515625 -6.390625 C 5.492188 -6.441406 5.46875 -6.488281 5.4375 -6.53125 C 5.40625 -6.582031 5.367188 -6.628906 5.328125 -6.671875 C 5.296875 -6.710938 5.257812 -6.753906 5.21875 -6.796875 C 5.15625 -6.847656 5.085938 -6.894531 5.015625 -6.9375 C 4.953125 -6.988281 4.882812 -7.03125 4.8125 -7.0625 C 4.75 -7.101562 4.679688 -7.140625 4.609375 -7.171875 C 4.484375 -7.210938 4.347656 -7.242188 4.203125 -7.265625 C 4.066406 -7.285156 3.925781 -7.296875 3.78125 -7.296875 C 3.644531 -7.296875 3.503906 -7.285156 3.359375 -7.265625 C 3.222656 -7.242188 3.085938 -7.207031 2.953125 -7.15625 C 2.734375 -7.082031 2.53125 -6.960938 2.34375 -6.796875 C 2.257812 -6.710938 2.1875 -6.625 2.125 -6.53125 C 2.0625 -6.445312 2.007812 -6.351562 1.96875 -6.25 C 1.945312 -6.164062 1.925781 -6.082031 1.90625 -6 C 1.882812 -5.925781 1.867188 -5.84375 1.859375 -5.75 C 1.847656 -5.664062 1.84375 -5.578125 1.84375 -5.484375 Z M 1.84375 -5.484375 "/></g></g></g><g fill="#ffffff" fill-opacity="1"><g transform="translate(33.812287, 42.577244)"><g><path d="M 0.390625 -5.625 C 0.390625 -6.53125 0.53125 -7.332031 0.8125 -8.03125 C 1.101562 -8.78125 1.488281 -9.410156 1.96875 -9.921875 C 2.414062 -10.398438 3.023438 -10.804688 3.796875 -11.140625 C 4.472656 -11.421875 5.238281 -11.5625 6.09375 -11.5625 C 7.21875 -11.5625 8.4375 -11.289062 9.75 -10.75 L 9.875 -10.703125 L 9.875 -7.84375 L 9.296875 -7.84375 C 9.148438 -7.84375 9.03125 -7.894531 8.9375 -8 C 8.84375 -8.101562 8.789062 -8.234375 8.78125 -8.390625 L 8.78125 -8.40625 C 8.78125 -8.414062 8.78125 -8.425781 8.78125 -8.4375 C 8.78125 -8.445312 8.773438 -8.460938 8.765625 -8.484375 C 8.765625 -8.503906 8.765625 -8.53125 8.765625 -8.5625 C 8.765625 -8.59375 8.765625 -8.625 8.765625 -8.65625 L 8.734375 -9.28125 C 8.710938 -9.519531 8.695312 -9.765625 8.6875 -10.015625 C 7.957031 -10.328125 7.09375 -10.484375 6.09375 -10.484375 C 5.425781 -10.484375 4.828125 -10.367188 4.296875 -10.140625 C 3.734375 -9.910156 3.257812 -9.59375 2.875 -9.1875 C 2.75 -9.050781 2.628906 -8.898438 2.515625 -8.734375 C 2.398438 -8.578125 2.296875 -8.40625 2.203125 -8.21875 C 2.109375 -8.039062 2.019531 -7.851562 1.9375 -7.65625 C 1.726562 -7.0625 1.625 -6.382812 1.625 -5.625 C 1.625 -4.84375 1.734375 -4.15625 1.953125 -3.5625 C 1.992188 -3.445312 2.035156 -3.332031 2.078125 -3.21875 C 2.128906 -3.101562 2.179688 -2.992188 2.234375 -2.890625 C 2.296875 -2.785156 2.359375 -2.6875 2.421875 -2.59375 C 2.492188 -2.5 2.5625 -2.40625 2.625 -2.3125 C 2.695312 -2.21875 2.773438 -2.128906 2.859375 -2.046875 C 3.054688 -1.828125 3.265625 -1.640625 3.484375 -1.484375 C 3.710938 -1.335938 3.953125 -1.210938 4.203125 -1.109375 C 4.367188 -1.035156 4.546875 -0.972656 4.734375 -0.921875 C 4.921875 -0.867188 5.113281 -0.828125 5.3125 -0.796875 C 5.507812 -0.773438 5.71875 -0.765625 5.9375 -0.765625 C 6.28125 -0.765625 6.625 -0.789062 6.96875 -0.84375 C 7.039062 -0.851562 7.109375 -0.863281 7.171875 -0.875 C 7.242188 -0.894531 7.3125 -0.914062 7.375 -0.9375 C 7.445312 -0.957031 7.519531 -0.976562 7.59375 -1 C 7.664062 -1.019531 7.738281 -1.046875 7.8125 -1.078125 C 7.9375 -1.128906 8.054688 -1.179688 8.171875 -1.234375 C 8.296875 -1.296875 8.40625 -1.363281 8.5 -1.4375 C 8.769531 -1.625 8.988281 -1.796875 9.15625 -1.953125 L 9.1875 -1.96875 C 9.195312 -1.976562 9.210938 -1.992188 9.234375 -2.015625 L 9.25 -2.046875 L 9.28125 -2.046875 C 9.320312 -2.078125 9.378906 -2.09375 9.453125 -2.09375 C 9.546875 -2.09375 9.632812 -2.050781 9.71875 -1.96875 L 10.03125 -1.625 L 10.171875 -1.5 L 10.03125 -1.359375 C 9.820312 -1.140625 9.5625 -0.910156 9.25 -0.671875 C 9.101562 -0.566406 8.953125 -0.46875 8.796875 -0.375 C 8.648438 -0.289062 8.488281 -0.210938 8.3125 -0.140625 C 7.945312 0.015625 7.578125 0.128906 7.203125 0.203125 C 7.003906 0.242188 6.796875 0.269531 6.578125 0.28125 C 6.359375 0.300781 6.125 0.3125 5.875 0.3125 C 5.082031 0.3125 4.34375 0.171875 3.65625 -0.109375 C 2.957031 -0.398438 2.378906 -0.800781 1.921875 -1.3125 C 1.429688 -1.863281 1.054688 -2.492188 0.796875 -3.203125 C 0.523438 -3.953125 0.390625 -4.757812 0.390625 -5.625 Z M 0.390625 -5.625 "/></g></g></g><g fill="#ffffff" fill-opacity="1"><g transform="translate(44.047525, 42.577244)"><g><path d="M 0.40625 -3.96875 C 0.40625 -4.539062 0.492188 -5.117188 0.671875 -5.703125 C 0.847656 -6.253906 1.097656 -6.707031 1.421875 -7.0625 C 1.742188 -7.425781 2.144531 -7.710938 2.625 -7.921875 C 3.113281 -8.128906 3.648438 -8.234375 4.234375 -8.234375 C 4.367188 -8.234375 4.503906 -8.226562 4.640625 -8.21875 C 4.785156 -8.207031 4.921875 -8.1875 5.046875 -8.15625 C 5.179688 -8.132812 5.3125 -8.101562 5.4375 -8.0625 C 5.570312 -8.019531 5.695312 -7.972656 5.8125 -7.921875 C 6.3125 -7.703125 6.710938 -7.414062 7.015625 -7.0625 C 7.109375 -6.957031 7.191406 -6.851562 7.265625 -6.75 C 7.335938 -6.644531 7.40625 -6.535156 7.46875 -6.421875 C 7.53125 -6.304688 7.585938 -6.1875 7.640625 -6.0625 C 7.691406 -5.945312 7.738281 -5.828125 7.78125 -5.703125 C 7.832031 -5.515625 7.875 -5.328125 7.90625 -5.140625 C 7.945312 -4.953125 7.972656 -4.757812 7.984375 -4.5625 C 8.003906 -4.363281 8.015625 -4.164062 8.015625 -3.96875 C 8.015625 -3.332031 7.9375 -2.753906 7.78125 -2.234375 C 7.613281 -1.722656 7.359375 -1.269531 7.015625 -0.875 C 6.859375 -0.695312 6.679688 -0.535156 6.484375 -0.390625 C 6.285156 -0.242188 6.0625 -0.117188 5.8125 -0.015625 C 5.351562 0.179688 4.828125 0.28125 4.234375 0.28125 C 4.035156 0.28125 3.84375 0.269531 3.65625 0.25 C 3.46875 0.226562 3.285156 0.191406 3.109375 0.140625 C 2.941406 0.0976562 2.78125 0.046875 2.625 -0.015625 C 2.144531 -0.222656 1.738281 -0.507812 1.40625 -0.875 C 1.101562 -1.21875 0.859375 -1.671875 0.671875 -2.234375 C 0.617188 -2.421875 0.570312 -2.609375 0.53125 -2.796875 C 0.488281 -2.984375 0.457031 -3.175781 0.4375 -3.375 C 0.414062 -3.570312 0.40625 -3.769531 0.40625 -3.96875 Z M 1.59375 -3.96875 C 1.59375 -3.789062 1.597656 -3.617188 1.609375 -3.453125 C 1.617188 -3.296875 1.632812 -3.144531 1.65625 -3 C 1.6875 -2.851562 1.722656 -2.71875 1.765625 -2.59375 C 1.890625 -2.144531 2.050781 -1.796875 2.25 -1.546875 C 2.476562 -1.265625 2.75 -1.050781 3.0625 -0.90625 C 3.238281 -0.832031 3.421875 -0.773438 3.609375 -0.734375 C 3.804688 -0.703125 4.015625 -0.6875 4.234375 -0.6875 C 4.660156 -0.6875 5.039062 -0.757812 5.375 -0.90625 C 5.445312 -0.945312 5.519531 -0.988281 5.59375 -1.03125 C 5.675781 -1.070312 5.75 -1.117188 5.8125 -1.171875 C 5.882812 -1.222656 5.953125 -1.28125 6.015625 -1.34375 C 6.078125 -1.40625 6.132812 -1.472656 6.1875 -1.546875 C 6.414062 -1.828125 6.582031 -2.171875 6.6875 -2.578125 C 6.789062 -3.003906 6.84375 -3.46875 6.84375 -3.96875 C 6.84375 -4.207031 6.828125 -4.441406 6.796875 -4.671875 C 6.773438 -4.898438 6.738281 -5.125 6.6875 -5.34375 C 6.632812 -5.539062 6.566406 -5.722656 6.484375 -5.890625 C 6.398438 -6.066406 6.300781 -6.226562 6.1875 -6.375 C 5.945312 -6.675781 5.675781 -6.894531 5.375 -7.03125 C 5.050781 -7.175781 4.671875 -7.25 4.234375 -7.25 C 3.785156 -7.25 3.394531 -7.175781 3.0625 -7.03125 C 2.914062 -6.957031 2.773438 -6.867188 2.640625 -6.765625 C 2.503906 -6.660156 2.375 -6.53125 2.25 -6.375 C 2.1875 -6.289062 2.125 -6.195312 2.0625 -6.09375 C 2.007812 -6 1.957031 -5.882812 1.90625 -5.75 C 1.851562 -5.625 1.804688 -5.484375 1.765625 -5.328125 C 1.703125 -5.140625 1.65625 -4.929688 1.625 -4.703125 C 1.601562 -4.472656 1.59375 -4.226562 1.59375 -3.96875 Z M 1.59375 -3.96875 "/></g></g></g><g fill="#ffffff" fill-opacity="1"><g transform="translate(52.47335, 42.577244)"><g><path d="M 0.40625 -3.953125 C 0.40625 -4.046875 0.40625 -4.144531 0.40625 -4.25 C 0.414062 -4.351562 0.425781 -4.453125 0.4375 -4.546875 C 0.445312 -4.648438 0.457031 -4.742188 0.46875 -4.828125 C 0.476562 -4.921875 0.488281 -5.015625 0.5 -5.109375 C 0.519531 -5.203125 0.539062 -5.285156 0.5625 -5.359375 C 0.582031 -5.441406 0.609375 -5.523438 0.640625 -5.609375 C 0.816406 -6.160156 1.050781 -6.617188 1.34375 -6.984375 C 1.675781 -7.390625 2.0625 -7.695312 2.5 -7.90625 C 2.957031 -8.125 3.472656 -8.234375 4.046875 -8.234375 C 4.109375 -8.234375 4.171875 -8.234375 4.234375 -8.234375 C 4.296875 -8.234375 4.359375 -8.226562 4.421875 -8.21875 C 4.484375 -8.21875 4.539062 -8.210938 4.59375 -8.203125 C 4.65625 -8.191406 4.710938 -8.179688 4.765625 -8.171875 C 4.828125 -8.160156 4.882812 -8.148438 4.9375 -8.140625 C 4.988281 -8.128906 5.039062 -8.113281 5.09375 -8.09375 C 5.15625 -8.070312 5.207031 -8.050781 5.25 -8.03125 C 5.300781 -8.019531 5.347656 -8.003906 5.390625 -7.984375 C 5.441406 -7.960938 5.488281 -7.941406 5.53125 -7.921875 C 5.8125 -7.785156 6.0625 -7.613281 6.28125 -7.40625 L 6.28125 -10.75 C 6.269531 -10.75 6.265625 -10.75 6.265625 -10.75 C 6.171875 -10.757812 6.113281 -10.765625 6.09375 -10.765625 L 5.734375 -10.765625 L 5.71875 -10.78125 L 5.625 -10.78125 C 5.476562 -10.789062 5.359375 -10.835938 5.265625 -10.921875 C 5.179688 -11.003906 5.140625 -11.117188 5.140625 -11.265625 L 5.140625 -11.78125 L 7.421875 -11.78125 L 7.421875 -0.8125 L 7.578125 -0.8125 C 7.617188 -0.8125 7.664062 -0.8125 7.71875 -0.8125 C 7.757812 -0.800781 7.785156 -0.796875 7.796875 -0.796875 L 8 -0.796875 C 8.132812 -0.785156 8.25 -0.738281 8.34375 -0.65625 C 8.4375 -0.570312 8.484375 -0.457031 8.484375 -0.3125 L 8.484375 0.1875 L 6.8125 0.1875 C 6.695312 0.1875 6.609375 0.15625 6.546875 0.09375 C 6.460938 0.03125 6.410156 -0.0625 6.390625 -0.1875 L 6.34375 -0.953125 C 6.050781 -0.628906 5.726562 -0.363281 5.375 -0.15625 C 5.132812 -0.0078125 4.875 0.0976562 4.59375 0.171875 C 4.3125 0.242188 4.007812 0.28125 3.6875 0.28125 C 2.65625 0.28125 1.847656 -0.0703125 1.265625 -0.78125 C 0.691406 -1.476562 0.40625 -2.535156 0.40625 -3.953125 Z M 1.578125 -3.953125 C 1.578125 -2.816406 1.78125 -1.984375 2.1875 -1.453125 C 2.5625 -0.953125 3.140625 -0.703125 3.921875 -0.703125 C 4.390625 -0.703125 4.828125 -0.832031 5.234375 -1.09375 C 5.617188 -1.34375 5.96875 -1.679688 6.28125 -2.109375 L 6.28125 -6.15625 C 6.226562 -6.238281 6.171875 -6.3125 6.109375 -6.375 C 6.054688 -6.445312 6 -6.507812 5.9375 -6.5625 C 5.875 -6.625 5.8125 -6.679688 5.75 -6.734375 C 5.6875 -6.785156 5.625 -6.832031 5.5625 -6.875 C 5.5 -6.925781 5.429688 -6.96875 5.359375 -7 C 5.023438 -7.175781 4.640625 -7.265625 4.203125 -7.265625 C 3.972656 -7.265625 3.765625 -7.242188 3.578125 -7.203125 C 3.390625 -7.171875 3.21875 -7.113281 3.0625 -7.03125 C 2.90625 -6.957031 2.757812 -6.863281 2.625 -6.75 C 2.488281 -6.632812 2.363281 -6.503906 2.25 -6.359375 C 2.144531 -6.234375 2.050781 -6.082031 1.96875 -5.90625 C 1.882812 -5.726562 1.8125 -5.523438 1.75 -5.296875 C 1.6875 -5.109375 1.640625 -4.898438 1.609375 -4.671875 C 1.585938 -4.441406 1.578125 -4.203125 1.578125 -3.953125 Z M 1.578125 -3.953125 "/></g></g></g><g fill="#ffffff" fill-opacity="1"><g transform="translate(61.372882, 42.577244)"><g><path d="M 0.40625 -4.109375 C 0.40625 -4.660156 0.492188 -5.207031 0.671875 -5.75 C 0.753906 -6 0.859375 -6.226562 0.984375 -6.4375 C 1.109375 -6.65625 1.25 -6.863281 1.40625 -7.0625 C 1.726562 -7.4375 2.125 -7.722656 2.59375 -7.921875 C 2.832031 -8.023438 3.085938 -8.101562 3.359375 -8.15625 C 3.628906 -8.207031 3.90625 -8.234375 4.1875 -8.234375 C 4.414062 -8.234375 4.640625 -8.210938 4.859375 -8.171875 C 5.078125 -8.128906 5.285156 -8.066406 5.484375 -7.984375 C 5.898438 -7.828125 6.253906 -7.59375 6.546875 -7.28125 C 6.828125 -6.988281 7.054688 -6.597656 7.234375 -6.109375 C 7.328125 -5.878906 7.394531 -5.632812 7.4375 -5.375 C 7.476562 -5.113281 7.5 -4.84375 7.5 -4.5625 C 7.5 -4.425781 7.46875 -4.3125 7.40625 -4.21875 C 7.34375 -4.113281 7.234375 -4.0625 7.078125 -4.0625 L 1.5625 -4.0625 C 1.5625 -3.78125 1.578125 -3.519531 1.609375 -3.28125 C 1.640625 -3.039062 1.691406 -2.816406 1.765625 -2.609375 C 1.898438 -2.160156 2.082031 -1.800781 2.3125 -1.53125 C 2.394531 -1.4375 2.476562 -1.351562 2.5625 -1.28125 C 2.65625 -1.207031 2.75 -1.140625 2.84375 -1.078125 C 2.945312 -1.015625 3.050781 -0.957031 3.15625 -0.90625 C 3.332031 -0.832031 3.515625 -0.773438 3.703125 -0.734375 C 3.890625 -0.703125 4.085938 -0.6875 4.296875 -0.6875 C 4.660156 -0.6875 4.984375 -0.734375 5.265625 -0.828125 C 5.597656 -0.929688 5.832031 -1.019531 5.96875 -1.09375 C 6.019531 -1.125 6.066406 -1.148438 6.109375 -1.171875 C 6.160156 -1.203125 6.203125 -1.226562 6.234375 -1.25 C 6.273438 -1.269531 6.3125 -1.289062 6.34375 -1.3125 C 6.375 -1.332031 6.398438 -1.351562 6.421875 -1.375 C 6.453125 -1.394531 6.476562 -1.414062 6.5 -1.4375 C 6.53125 -1.457031 6.554688 -1.472656 6.578125 -1.484375 C 6.609375 -1.503906 6.640625 -1.519531 6.671875 -1.53125 C 6.710938 -1.539062 6.75 -1.546875 6.78125 -1.546875 C 6.84375 -1.546875 6.898438 -1.53125 6.953125 -1.5 C 7.015625 -1.46875 7.066406 -1.429688 7.109375 -1.390625 L 7.3125 -1.140625 L 7.40625 -1.015625 L 7.3125 -0.90625 C 7.1875 -0.738281 7 -0.570312 6.75 -0.40625 C 6.53125 -0.257812 6.285156 -0.132812 6.015625 -0.03125 C 5.734375 0.0625 5.445312 0.140625 5.15625 0.203125 C 4.90625 0.253906 4.597656 0.28125 4.234375 0.28125 C 3.628906 0.28125 3.109375 0.1875 2.671875 0 C 2.191406 -0.207031 1.785156 -0.5 1.453125 -0.875 C 1.128906 -1.238281 0.875 -1.703125 0.6875 -2.265625 C 0.59375 -2.535156 0.519531 -2.828125 0.46875 -3.140625 C 0.425781 -3.453125 0.40625 -3.773438 0.40625 -4.109375 Z M 1.625 -4.953125 L 6.421875 -4.953125 C 6.398438 -5.253906 6.34375 -5.550781 6.25 -5.84375 C 6.164062 -6.113281 6.015625 -6.375 5.796875 -6.625 C 5.609375 -6.832031 5.378906 -6.992188 5.109375 -7.109375 C 4.816406 -7.222656 4.515625 -7.28125 4.203125 -7.28125 C 4.015625 -7.28125 3.832031 -7.265625 3.65625 -7.234375 C 3.488281 -7.203125 3.328125 -7.160156 3.171875 -7.109375 C 2.867188 -6.992188 2.613281 -6.828125 2.40625 -6.609375 C 2.320312 -6.523438 2.25 -6.441406 2.1875 -6.359375 C 2.125 -6.273438 2.0625 -6.1875 2 -6.09375 C 1.945312 -6.007812 1.898438 -5.914062 1.859375 -5.8125 C 1.753906 -5.539062 1.675781 -5.253906 1.625 -4.953125 Z M 1.625 -4.953125 "/></g></g></g><path fill="#ff914d" d="M 33.554688 22.664062 C 33.4375 22.664062 33.320312 22.621094 33.226562 22.546875 L 27.253906 17.847656 C 27.125 17.746094 27.050781 17.597656 27.050781 17.433594 C 27.050781 17.269531 27.125 17.117188 27.253906 17.015625 L 33.226562 12.316406 C 33.320312 12.246094 33.4375 12.203125 33.554688 12.203125 C 33.71875 12.203125 33.871094 12.277344 33.96875 12.40625 C 34.058594 12.515625 34.097656 12.65625 34.082031 12.796875 C 34.0625 12.9375 33.992188 13.0625 33.882812 13.148438 L 28.4375 17.433594 L 33.882812 21.71875 C 33.992188 21.804688 34.0625 21.929688 34.082031 22.070312 C 34.097656 22.210938 34.058594 22.347656 33.96875 22.460938 C 33.871094 22.589844 33.71875 22.664062 33.554688 22.664062 " fill-opacity="1" fill-rule="nonzero"/><g clip-path="url(#0c5eac4f46)"><path fill="#ff914d" d="M 33.554688 11.980469 C 33.386719 11.980469 33.222656 12.035156 33.089844 12.140625 L 27.113281 16.839844 C 26.933594 16.984375 26.828125 17.199219 26.828125 17.433594 C 26.828125 17.664062 26.933594 17.882812 27.113281 18.027344 L 33.089844 22.726562 C 33.21875 22.828125 33.386719 22.886719 33.554688 22.886719 C 33.789062 22.886719 34.003906 22.78125 34.148438 22.597656 C 34.273438 22.441406 34.328125 22.242188 34.304688 22.042969 C 34.28125 21.84375 34.179688 21.664062 34.023438 21.539062 L 28.800781 17.433594 L 34.023438 13.328125 C 34.179688 13.203125 34.28125 13.023438 34.304688 12.824219 C 34.328125 12.621094 34.273438 12.425781 34.148438 12.265625 C 34.003906 12.082031 33.789062 11.980469 33.554688 11.980469 Z M 33.554688 12.429688 C 33.644531 12.429688 33.734375 12.46875 33.792969 12.546875 C 33.898438 12.679688 33.875 12.867188 33.742188 12.972656 L 28.074219 17.433594 L 33.742188 21.894531 C 33.875 21.996094 33.898438 22.1875 33.792969 22.320312 C 33.734375 22.398438 33.644531 22.4375 33.554688 22.4375 C 33.488281 22.4375 33.421875 22.417969 33.367188 22.371094 L 27.394531 17.671875 C 27.320312 17.613281 27.277344 17.527344 27.277344 17.433594 C 27.277344 17.339844 27.320312 17.253906 27.394531 17.195312 L 33.367188 12.496094 C 33.421875 12.449219 33.488281 12.429688 33.554688 12.429688 " fill-opacity="1" fill-rule="nonzero"/></g><g clip-path="url(#b0c9ae07d2)"><path fill="#ff914d" d="M 41.4375 22.664062 C 41.273438 22.664062 41.121094 22.589844 41.019531 22.460938 C 40.839844 22.230469 40.878906 21.898438 41.109375 21.71875 L 46.554688 17.433594 L 41.109375 13.148438 C 40.878906 12.96875 40.839844 12.636719 41.019531 12.40625 C 41.121094 12.277344 41.273438 12.203125 41.4375 12.203125 C 41.554688 12.203125 41.671875 12.246094 41.765625 12.316406 L 47.738281 17.015625 C 47.867188 17.117188 47.9375 17.269531 47.9375 17.433594 C 47.9375 17.597656 47.867188 17.746094 47.738281 17.847656 L 41.765625 22.546875 C 41.671875 22.621094 41.554688 22.664062 41.4375 22.664062 " fill-opacity="1" fill-rule="nonzero"/></g><g clip-path="url(#7e0e93a827)"><path fill="#ff914d" d="M 41.4375 11.980469 C 41.203125 11.980469 40.988281 12.082031 40.84375 12.265625 C 40.585938 12.59375 40.644531 13.070312 40.96875 13.328125 L 46.191406 17.433594 L 40.96875 21.539062 C 40.644531 21.796875 40.585938 22.273438 40.84375 22.597656 C 40.988281 22.78125 41.203125 22.886719 41.4375 22.886719 C 41.605469 22.886719 41.769531 22.828125 41.902344 22.726562 L 47.875 18.027344 C 48.058594 17.882812 48.164062 17.664062 48.164062 17.433594 C 48.164062 17.199219 48.058594 16.984375 47.878906 16.839844 L 41.902344 12.140625 C 41.769531 12.035156 41.605469 11.980469 41.4375 11.980469 Z M 41.4375 12.429688 C 41.503906 12.429688 41.570312 12.449219 41.625 12.496094 L 47.597656 17.195312 C 47.671875 17.253906 47.714844 17.339844 47.714844 17.433594 C 47.714844 17.527344 47.671875 17.613281 47.597656 17.671875 L 41.625 22.371094 C 41.570312 22.417969 41.503906 22.4375 41.4375 22.4375 C 41.347656 22.4375 41.257812 22.398438 41.199219 22.320312 C 41.09375 22.1875 41.117188 21.996094 41.25 21.894531 L 46.917969 17.433594 L 41.25 12.972656 C 41.117188 12.867188 41.09375 12.679688 41.199219 12.546875 C 41.257812 12.46875 41.347656 12.429688 41.4375 12.429688 " fill-opacity="1" fill-rule="nonzero"/></g><g clip-path="url(#7f24880613)"><path fill="#ff914d" d="M 34.527344 25.5 C 34.460938 25.5 34.398438 25.484375 34.335938 25.460938 C 34.203125 25.410156 34.101562 25.3125 34.042969 25.183594 C 33.984375 25.054688 33.984375 24.910156 34.035156 24.777344 L 39.867188 9.707031 C 39.945312 9.503906 40.144531 9.367188 40.359375 9.367188 C 40.425781 9.367188 40.492188 9.382812 40.554688 9.40625 C 40.824219 9.511719 40.960938 9.816406 40.855469 10.089844 L 35.019531 25.160156 C 34.941406 25.363281 34.742188 25.5 34.527344 25.5 " fill-opacity="1" fill-rule="nonzero"/></g><g clip-path="url(#c8a168f1ba)"><path fill="#ff914d" d="M 40.359375 9.144531 C 40.050781 9.144531 39.769531 9.339844 39.65625 9.625 L 33.824219 24.695312 C 33.75 24.882812 33.757812 25.089844 33.835938 25.273438 C 33.917969 25.457031 34.066406 25.601562 34.253906 25.671875 C 34.34375 25.707031 34.433594 25.722656 34.527344 25.722656 C 34.835938 25.722656 35.121094 25.53125 35.230469 25.242188 L 41.066406 10.171875 C 41.214844 9.78125 41.019531 9.34375 40.632812 9.195312 C 40.546875 9.160156 40.453125 9.144531 40.359375 9.144531 Z M 40.359375 9.59375 C 40.398438 9.59375 40.433594 9.601562 40.472656 9.613281 C 40.628906 9.675781 40.707031 9.851562 40.644531 10.007812 L 34.808594 25.078125 C 34.765625 25.199219 34.648438 25.273438 34.527344 25.273438 C 34.492188 25.273438 34.453125 25.265625 34.417969 25.253906 C 34.261719 25.191406 34.183594 25.015625 34.246094 24.859375 L 40.078125 9.789062 C 40.125 9.667969 40.238281 9.59375 40.359375 9.59375 " fill-opacity="1" fill-rule="nonzero"/></g><g fill="#ff914d" fill-opacity="1"><g transform="translate(8.649547, 56.079359)"><g><path d="M 3.828125 0.125 C 3.046875 0.125 2.414062 0.0390625 1.9375 -0.125 C 1.457031 -0.289062 1.09375 -0.519531 0.84375 -0.8125 C 0.59375 -1.113281 0.421875 -1.457031 0.328125 -1.84375 L 2.921875 -1.84375 C 3.109375 -1.570312 3.410156 -1.4375 3.828125 -1.4375 C 4.242188 -1.4375 4.550781 -1.570312 4.75 -1.84375 C 4.757812 -1.875 4.765625 -1.898438 4.765625 -1.921875 C 4.765625 -1.992188 4.664062 -2.046875 4.46875 -2.078125 C 4.28125 -2.117188 4 -2.144531 3.625 -2.15625 C 3.132812 -2.1875 2.625 -2.238281 2.09375 -2.3125 C 0.914062 -2.5 0.328125 -2.976562 0.328125 -3.75 C 0.328125 -3.8125 0.328125 -3.878906 0.328125 -3.953125 C 0.421875 -4.335938 0.59375 -4.675781 0.84375 -4.96875 C 1.09375 -5.269531 1.457031 -5.503906 1.9375 -5.671875 C 2.414062 -5.835938 3.046875 -5.921875 3.828125 -5.921875 C 4.617188 -5.921875 5.253906 -5.835938 5.734375 -5.671875 C 6.210938 -5.503906 6.578125 -5.269531 6.828125 -4.96875 C 7.078125 -4.675781 7.242188 -4.335938 7.328125 -3.953125 L 4.75 -3.953125 C 4.550781 -4.222656 4.242188 -4.359375 3.828125 -4.359375 C 3.410156 -4.359375 3.109375 -4.222656 2.921875 -3.953125 C 2.910156 -3.929688 2.90625 -3.910156 2.90625 -3.890625 C 2.90625 -3.828125 2.992188 -3.78125 3.171875 -3.75 C 3.359375 -3.71875 3.628906 -3.691406 3.984375 -3.671875 C 4.347656 -3.648438 4.734375 -3.613281 5.140625 -3.5625 C 5.546875 -3.507812 5.925781 -3.421875 6.28125 -3.296875 C 6.632812 -3.179688 6.910156 -3.007812 7.109375 -2.78125 C 7.265625 -2.59375 7.34375 -2.363281 7.34375 -2.09375 C 7.34375 -2.007812 7.335938 -1.925781 7.328125 -1.84375 C 7.242188 -1.457031 7.078125 -1.113281 6.828125 -0.8125 C 6.578125 -0.519531 6.210938 -0.289062 5.734375 -0.125 C 5.253906 0.0390625 4.617188 0.125 3.828125 0.125 Z M 3.828125 0.125 "/></g></g></g><g fill="#ff914d" fill-opacity="1"><g transform="translate(15.999873, 56.079359)"><g><path d="M 5.65625 0 L 3.234375 0 L 3.234375 -2.75 L 0.0625 -5.796875 L 2.75 -5.796875 L 4.4375 -4.0625 L 6.125 -5.796875 L 8.828125 -5.796875 L 5.65625 -2.75 Z M 5.65625 0 "/></g></g></g><g fill="#ff914d" fill-opacity="1"><g transform="translate(24.557664, 56.079359)"><g><path d="M 3.828125 0.125 C 3.046875 0.125 2.414062 0.0390625 1.9375 -0.125 C 1.457031 -0.289062 1.09375 -0.519531 0.84375 -0.8125 C 0.59375 -1.113281 0.421875 -1.457031 0.328125 -1.84375 L 2.921875 -1.84375 C 3.109375 -1.570312 3.410156 -1.4375 3.828125 -1.4375 C 4.242188 -1.4375 4.550781 -1.570312 4.75 -1.84375 C 4.757812 -1.875 4.765625 -1.898438 4.765625 -1.921875 C 4.765625 -1.992188 4.664062 -2.046875 4.46875 -2.078125 C 4.28125 -2.117188 4 -2.144531 3.625 -2.15625 C 3.132812 -2.1875 2.625 -2.238281 2.09375 -2.3125 C 0.914062 -2.5 0.328125 -2.976562 0.328125 -3.75 C 0.328125 -3.8125 0.328125 -3.878906 0.328125 -3.953125 C 0.421875 -4.335938 0.59375 -4.675781 0.84375 -4.96875 C 1.09375 -5.269531 1.457031 -5.503906 1.9375 -5.671875 C 2.414062 -5.835938 3.046875 -5.921875 3.828125 -5.921875 C 4.617188 -5.921875 5.253906 -5.835938 5.734375 -5.671875 C 6.210938 -5.503906 6.578125 -5.269531 6.828125 -4.96875 C 7.078125 -4.675781 7.242188 -4.335938 7.328125 -3.953125 L 4.75 -3.953125 C 4.550781 -4.222656 4.242188 -4.359375 3.828125 -4.359375 C 3.410156 -4.359375 3.109375 -4.222656 2.921875 -3.953125 C 2.910156 -3.929688 2.90625 -3.910156 2.90625 -3.890625 C 2.90625 -3.828125 2.992188 -3.78125 3.171875 -3.75 C 3.359375 -3.71875 3.628906 -3.691406 3.984375 -3.671875 C 4.347656 -3.648438 4.734375 -3.613281 5.140625 -3.5625 C 5.546875 -3.507812 5.925781 -3.421875 6.28125 -3.296875 C 6.632812 -3.179688 6.910156 -3.007812 7.109375 -2.78125 C 7.265625 -2.59375 7.34375 -2.363281 7.34375 -2.09375 C 7.34375 -2.007812 7.335938 -1.925781 7.328125 -1.84375 C 7.242188 -1.457031 7.078125 -1.113281 6.828125 -0.8125 C 6.578125 -0.519531 6.210938 -0.289062 5.734375 -0.125 C 5.253906 0.0390625 4.617188 0.125 3.828125 0.125 Z M 3.828125 0.125 "/></g></g></g><g fill="#ff914d" fill-opacity="1"><g transform="translate(31.90799, 56.079359)"><g><path d="M 4.953125 0 L 2.515625 0 L 2.515625 -4.359375 L 0.25 -4.359375 L 0.25 -5.796875 L 7.21875 -5.796875 L 7.21875 -4.359375 L 4.953125 -4.359375 Z M 4.953125 0 "/></g></g></g><g fill="#ff914d" fill-opacity="1"><g transform="translate(39.048323, 56.079359)"><g><path d="M 7.640625 0 L 0.640625 0 L 0.640625 -5.796875 L 7.3125 -5.796875 L 7.3125 -4.359375 L 3.078125 -4.359375 L 3.078125 -3.453125 L 6.65625 -3.453125 L 6.65625 -2.34375 L 3.078125 -2.34375 L 3.078125 -1.4375 L 7.640625 -1.4375 Z M 7.640625 0 "/></g></g></g><g fill="#ff914d" fill-opacity="1"><g transform="translate(46.681333, 56.079359)"><g><path d="M 11.671875 0 L 9.25 0 L 9.25 -3.703125 L 7.0625 0 L 5.25 0 L 3.078125 -3.703125 L 3.078125 0 L 0.640625 0 L 0.640625 -5.796875 L 3.53125 -5.796875 L 6.15625 -1.65625 L 8.78125 -5.796875 L 11.671875 -5.796875 Z M 11.671875 0 "/></g></g></g><g fill="#ff914d" fill-opacity="1"><g transform="translate(58.675744, 56.079359)"><g><path d="M 3.828125 0.125 C 3.046875 0.125 2.414062 0.0390625 1.9375 -0.125 C 1.457031 -0.289062 1.09375 -0.519531 0.84375 -0.8125 C 0.59375 -1.113281 0.421875 -1.457031 0.328125 -1.84375 L 2.921875 -1.84375 C 3.109375 -1.570312 3.410156 -1.4375 3.828125 -1.4375 C 4.242188 -1.4375 4.550781 -1.570312 4.75 -1.84375 C 4.757812 -1.875 4.765625 -1.898438 4.765625 -1.921875 C 4.765625 -1.992188 4.664062 -2.046875 4.46875 -2.078125 C 4.28125 -2.117188 4 -2.144531 3.625 -2.15625 C 3.132812 -2.1875 2.625 -2.238281 2.09375 -2.3125 C 0.914062 -2.5 0.328125 -2.976562 0.328125 -3.75 C 0.328125 -3.8125 0.328125 -3.878906 0.328125 -3.953125 C 0.421875 -4.335938 0.59375 -4.675781 0.84375 -4.96875 C 1.09375 -5.269531 1.457031 -5.503906 1.9375 -5.671875 C 2.414062 -5.835938 3.046875 -5.921875 3.828125 -5.921875 C 4.617188 -5.921875 5.253906 -5.835938 5.734375 -5.671875 C 6.210938 -5.503906 6.578125 -5.269531 6.828125 -4.96875 C 7.078125 -4.675781 7.242188 -4.335938 7.328125 -3.953125 L 4.75 -3.953125 C 4.550781 -4.222656 4.242188 -4.359375 3.828125 -4.359375 C 3.410156 -4.359375 3.109375 -4.222656 2.921875 -3.953125 C 2.910156 -3.929688 2.90625 -3.910156 2.90625 -3.890625 C 2.90625 -3.828125 2.992188 -3.78125 3.171875 -3.75 C 3.359375 -3.71875 3.628906 -3.691406 3.984375 -3.671875 C 4.347656 -3.648438 4.734375 -3.613281 5.140625 -3.5625 C 5.546875 -3.507812 5.925781 -3.421875 6.28125 -3.296875 C 6.632812 -3.179688 6.910156 -3.007812 7.109375 -2.78125 C 7.265625 -2.59375 7.34375 -2.363281 7.34375 -2.09375 C 7.34375 -2.007812 7.335938 -1.925781 7.328125 -1.84375 C 7.242188 -1.457031 7.078125 -1.113281 6.828125 -0.8125 C 6.578125 -0.519531 6.210938 -0.289062 5.734375 -0.125 C 5.253906 0.0390625 4.617188 0.125 3.828125 0.125 Z M 3.828125 0.125 "/></g></g></g></svg>