<svg version="1.2" xmlns="http://www.w3.org/2000/svg" viewBox="0 0 375 376" width="150" height="150">
	<title>EngCode-svg</title>
	<defs>
		<clipPath clipPathUnits="userSpaceOnUse" id="cp1">
			<path d="m106.76 49h57.24v84h-57.24z"/>
		</clipPath>
		<clipPath clipPathUnits="userSpaceOnUse" id="cp2">
			<path d="m211 49h57.01v84h-57.01z"/>
		</clipPath>
		<clipPath clipPathUnits="userSpaceOnUse" id="cp3">
			<path d="m159 28.55h56v125.25h-56z"/>
		</clipPath>
	</defs>
	<style>
		.s0 { fill: none;stroke: #000000;stroke-width: 6 } 
		.s1 { fill: #ffffff } 
		.s2 { fill: #ff914d } 
		.s3 { fill: #000000 } 
	</style>
	<path id="Layer" fill-rule="evenodd" class="s0" d="m31.6 180.6v-2.5h42.5v13.6h-3q-1.2 0-1.9-0.8-0.7-0.8-0.7-2v-0.1q0-0.2-0.1-1-0.1-0.8-0.1-2.3-0.1-1.1-0.2-2.1h-23.7v20.8h22.4v5.2h-22.4v21.5h23.7q0.1-0.2 0.1-0.4 0.1-0.9 0.1-1.4 0.1-1.2 0.1-2.4 0-0.4 0-0.8l0.1-0.3q0-1.3 0.7-2.1 0.7-0.8 1.9-0.8h3v13.6h-42.4v-2.6q0-1 0.7-1.7 0.6-0.6 1.7-0.7h0.9q0.1 0 0.6 0 0.7-0.1 1.1-0.1 0.2 0 0.3 0 0.2 0 0.4 0 0.2 0 0.5 0 0.1 0 0.3 0 0.1 0 0.2 0v-48.1q-0.3 0-0.5 0-0.9 0-1.2 0-0.1 0-0.3 0-0.2 0-0.3 0-0.2 0-0.5 0-0.1 0-0.3-0.1-0.1 0-0.2 0c0 0-1 0-1 0q-1.1-0.1-1.8-0.7-0.7-0.6-0.7-1.7zm49.6 53.1q0-1 0.7-1.7 0.7-0.6 1.7-0.7h1.9q0.3 0 1-0.1 0.2 0 0.4 0v-31.4c0 0-0.1 0-0.1 0q-0.3 0-0.5 0c-0.2 0-1.5 0-1.6 0l-0.5-0.1h-0.6q-1-0.1-1.7-0.7-0.7-0.6-0.7-1.7v-2.5h8.8q0.2 0 0.5 0.1 0.3 0 0.6 0.2 0.2 0.1 0.5 0.3 0.4 0.5 0.5 1.2v0.1l0.2 3.6q0.8-0.8 1.6-1.5 0.7-0.6 1.6-1.2 0.8-0.6 1.8-1.2 3.8-2.2 8.5-2.2 3.5 0 6.1 1.1 0.7 0.3 1.3 0.6 0.6 0.4 1.2 0.7 0.5 0.4 1 0.9 0.5 0.5 1 1 1.7 2 2.7 5.1 0.9 3.1 0.9 6.4v21.2q0.1 0 0.1 0 0.2 0 0.4 0 0.1 0 0.3 0 0.1 0 0.1 0 0.4 0 0.8 0.1h0.4 1.1q1.1 0.1 1.8 0.7 0.7 0.7 0.7 1.7v2.6h-11.5v-26.3q0-5.2-2.3-8.1-2.2-2.7-7.1-2.7-1.2 0-2.4 0.2-1.1 0.2-2.2 0.6-1.1 0.4-2.1 1-1.5 1-2.9 2.2-1.4 1.3-2.6 2.8v25.2q0.1 0 0.1 0 0.3 0 0.6 0 0.2 0 0.3 0 0.4 0 0.8 0.1h0.4 1.1q1.1 0.1 1.8 0.7 0.7 0.7 0.7 1.7v2.6h-17.2zm48.3 5.7q0-3.5 2.3-6.1 1.6-1.7 4-2.9-0.9-0.5-1.5-1.2-1.3-1.5-1.3-4.1 0-0.2 0-0.4 0-0.1 0-0.3 0.1-0.2 0.1-0.4 0-0.1 0-0.3 0.1-0.2 0.1-0.4 0.1-0.1 0.2-0.3 0.1-0.5 0.4-0.9 0.2-0.5 0.6-1.1 0.5-0.9 1.7-1.9 0.1 0 0.2-0.1 0.1-0.1 0.2-0.2 0.1-0.1 0.3-0.2 0.1-0.1 0.2-0.2-2.1-1.6-3.4-3.8-1.7-3-1.7-6.8 0-2.8 1.1-5.6 0.5-1.3 1.2-2.4 0.8-1.1 1.9-2 2-1.7 4.8-2.7 2.8-1 6.1-1 2.6 0 5 0.6 1.1 0.3 2.1 0.8 1 0.4 1.9 1h10.9v2.3q0 0.6-0.4 1.2-0.5 0.7-1.6 0.8l-4.5 0.4q0.2 0.3 0.4 0.6 0.1 0.2 0.2 0.5 0.2 0.3 0.3 0.6 0.1 0.3 0.2 0.5 0.2 1 0.4 2.1 0.1 1.1 0.1 2.3 0 3-1.1 5.5-1.1 2.6-3.1 4.4-1.9 1.6-4.8 2.7-0.9 0.3-1.8 0.5-1 0.2-2.1 0.3-1 0.1-2.1 0.1-1.8 0-3.3-0.2-1.5-0.2-2.8-0.7-0.1 0.1-0.1 0.1-0.6 0.4-1.1 0.8-0.4 0.4-0.8 0.9-0.7 1.1-0.7 1.9 0 1.3 0.8 1.9 0.9 0.7 2.8 1.2 1.2 0.3 4.3 0.4 0.8 0.1 2.5 0.2 1.7 0.1 2.6 0.1 2.6 0.2 5.2 0.5 1.4 0.2 2.6 0.6 1.2 0.3 2.3 0.8 2.4 1.2 3.5 2.8 1.3 1.8 1.3 4.8 0 2.7-1.3 5.1-1.2 2.5-3.9 4.5-2.4 1.8-5.8 2.9-3.7 1.2-7.8 1.2-4.1 0-7.6-1-3.1-0.8-5.5-2.4-0.8-0.5-1.4-1.1-0.7-0.6-1.2-1.2-0.5-0.7-0.9-1.4-1.2-2.3-1.2-4.6zm5.4-0.4q0 1.7 0.7 2.7 0.8 1.4 2.3 2.3 1.8 1.2 4 1.7 2.5 0.5 5.5 0.5 0.8 0 1.5 0 0.8 0 1.4-0.1 0.7-0.1 1.3-0.2 0.7-0.1 1.2-0.2 1.2-0.4 2.2-0.8 1.1-0.4 2.1-1 1.6-1 2.7-2.7 0.9-1.6 0.9-3.2 0-1.4-0.8-2.4-0.8-1-2.1-1.4-0.5-0.2-0.9-0.3-0.4-0.2-0.8-0.3-0.4-0.1-0.7-0.2-0.4-0.1-0.6-0.1-0.3 0-0.6-0.1-1.5-0.1-4.4-0.3-0.8 0-2.3-0.1-0.8 0-1.4-0.1-0.5 0-0.9 0-2.2-0.1-4.2-0.4-1.1 0.3-2.5 1.1-0.7 0.4-1.9 1.6-0.9 0.8-1.3 1.8-0.4 1.2-0.4 2.2zm2.4-31.2q0 2.1 0.6 3.8 0.3 0.8 0.8 1.5 0.5 0.6 1.1 1.2 1.4 1.3 3.1 1.8 1.8 0.7 4.1 0.7 0.4 0 0.7 0 0.4 0 0.8-0.1 0.4 0 0.7-0.1 0.4 0 0.7-0.1 0.3 0 0.7-0.1 0.3-0.1 0.6-0.3 1.7-0.5 3-1.8 0.6-0.6 1.1-1.3 0.4-0.7 0.7-1.4 0.7-1.8 0.7-3.8 0-1.9-0.7-3.7-0.1-0.4-0.3-0.8-0.2-0.3-0.4-0.7-0.3-0.3-0.5-0.6-0.3-0.4-0.7-0.7-0.4-0.4-0.9-0.7-0.5-0.4-1-0.6-0.5-0.3-1.1-0.6-0.9-0.3-2-0.4-1-0.2-2.1-0.2-1.1 0-2.1 0.2-1 0.1-2 0.5-1.7 0.6-3.1 1.8-0.6 0.6-1.1 1.3-0.5 0.7-0.8 1.5-0.2 0.5-0.3 1.2-0.1 0.5-0.2 1.2-0.1 0.6-0.1 1.3zm33.7-0.7q0-6.8 2.1-12 2.2-5.6 5.8-9.4 3.3-3.6 9.1-6.1 5.1-2.1 11.5-2.1 8.4 0 18.3 4l0.7 0.2v14.4h-2.9q-1.2 0-1.9-0.8-0.7-0.8-0.8-2c0 0 0-0.1 0-0.2q0-0.1 0-0.3 0-0.1 0-0.3 0-0.2 0-0.5l-0.2-3.2q-0.1-1.7-0.2-3.6-5.5-2.3-13-2.3-5 0-9 1.7-4.2 1.7-7.1 4.7-0.9 1.1-1.8 2.3-0.8 1.2-1.5 2.5-0.8 1.4-1.3 2.9-1.6 4.5-1.6 10.1 0 5.9 1.6 10.4 0.3 0.8 0.7 1.7 0.4 0.8 0.8 1.6 0.4 0.8 0.9 1.5 0.5 0.8 1 1.5 0.6 0.7 1.2 1.3 1.4 1.6 3.1 2.7 1.7 1.2 3.6 2 1.3 0.5 2.6 0.9 1.4 0.4 2.9 0.5 1.5 0.2 3.1 0.2 2.6 0 5.2-0.3 0.5-0.1 1-0.2 0.5-0.1 1.1-0.3 0.5-0.1 1-0.3 0.5-0.2 1.1-0.4 1-0.4 1.9-0.8 0.8-0.5 1.5-1 2.1-1.4 3.3-2.6l0.2-0.1q0.1-0.1 0.2-0.2l0.1-0.1 0.2-0.1q0.3-0.2 0.8-0.2 0.7 0 1.3 0.7l1.6 1.6 0.7 0.7-0.7 0.7q-1.5 1.6-3.9 3.4-1.1 0.8-2.2 1.5-1.2 0.6-2.4 1.2-2.8 1.2-5.6 1.7-1.5 0.3-3.1 0.4-1.7 0.2-3.6 0.2-5.9 0-11-2.2-5.3-2.1-8.7-6-3.7-4.1-5.6-9.4-2.1-5.7-2.1-12.2zm51.3 8.4q0-4.4 1.3-8.7 1.3-4.2 3.7-6.8 2.5-2.8 6.1-4.3 3.6-1.6 8-1.6 1.1 0 2.1 0.1 1 0.1 2 0.3 1 0.2 2 0.5 0.9 0.3 1.8 0.7 3.7 1.6 6 4.3 0.7 0.7 1.3 1.5 0.5 0.8 1 1.7 0.5 0.8 0.8 1.7 0.4 0.9 0.7 1.9 0.4 1.3 0.7 2.8 0.3 1.4 0.4 2.9 0.2 1.5 0.2 3 0 4.7-1.3 8.6-1.2 3.8-3.8 6.8-1.1 1.4-2.6 2.4-1.6 1.1-3.4 1.9-3.4 1.5-7.9 1.5-1.5 0-2.9-0.2-1.4-0.1-2.7-0.5-1.3-0.3-2.4-0.8-3.6-1.5-6.1-4.3-2.3-2.6-3.7-6.8-0.4-1.4-0.7-2.8-0.3-1.4-0.5-2.9-0.1-1.4-0.1-2.9zm5.9 0q0 1.3 0.1 2.5 0.1 1.2 0.3 2.3 0.2 1.1 0.5 2.1 0.9 3.3 2.4 5.1 1.7 2.2 4.1 3.2 1.3 0.6 2.7 0.9 1.4 0.3 3.1 0.3 3.2 0 5.7-1.2 0.6-0.2 1.2-0.6 0.5-0.3 1-0.7 0.5-0.4 1-0.9 0.5-0.4 0.9-1 1.7-2.1 2.5-5.1 0.8-3.2 0.8-6.9 0-1.9-0.2-3.6-0.2-1.7-0.6-3.3-0.4-1.5-1-2.8-0.7-1.3-1.5-2.4-1.8-2.2-4.1-3.3-2.4-1-5.7-1-3.4 0-5.8 1-1.2 0.6-2.2 1.4-1 0.8-1.9 1.9-0.5 0.6-0.9 1.4-0.5 0.7-0.8 1.7-0.4 1-0.7 2.1-0.5 1.5-0.7 3.2-0.2 1.7-0.2 3.7zm36.2 0.1q0-0.8 0.1-1.6 0-0.7 0.1-1.5 0-0.7 0.1-1.4 0.1-0.7 0.2-1.3 0.1-0.7 0.3-1.3 0.2-0.7 0.4-1.3 1.3-4.1 3.5-6.8 2.5-3.1 5.7-4.6 3.5-1.7 7.8-1.7 0.5 0 1 0 0.4 0 0.9 0.1 0.4 0 0.9 0.1 0.4 0 0.8 0.1 0.4 0.1 0.8 0.2 0.5 0.1 0.9 0.2 0.4 0.1 0.7 0.3 0.4 0.1 0.8 0.3 0.3 0.1 0.7 0.3 2 1 3.7 2.6v-16.8q-0.1 0-0.1 0-0.7 0-0.9 0h-1.2l-0.5-0.1h-0.2-0.4q-1.1-0.1-1.8-0.7-0.7-0.7-0.7-1.7v-2.6h11.5v54.8h0.7q0.3 0 0.8 0 0.3 0.1 0.4 0.1h1q1 0.1 1.7 0.7 0.7 0.6 0.7 1.7v2.6h-8.4q-0.8 0-1.3-0.5-0.7-0.5-0.8-1.4v-0.1l-0.2-3.8q-2.2 2.5-4.8 4-1.8 1.1-4 1.7-2.1 0.5-4.5 0.5-7.8 0-12.1-5.3-4.3-5.3-4.3-15.8zm5.9 0q0 8.4 3 12.4 2.9 3.8 8.6 3.8 3.6 0 6.6-2 2.9-1.9 5.3-5.1v-20.2q-0.4-0.6-0.9-1.1-0.4-0.5-0.8-1-0.5-0.4-1-0.8-0.4-0.4-0.9-0.7-0.5-0.4-1-0.6-2.5-1.4-5.8-1.4-1.7 0-3.1 0.3-1.5 0.3-2.6 0.9-1.2 0.6-2.2 1.4-1 0.9-1.9 2-0.8 1-1.4 2.3-0.6 1.3-1.1 3-0.4 1.4-0.6 3.1-0.3 1.7-0.2 3.7zm38.6-0.9q0-4.1 1.3-8.2 0.7-1.8 1.6-3.4 0.9-1.7 2.1-3.1 2.4-2.8 5.9-4.3 1.9-0.8 3.9-1.2 2-0.4 4.1-0.4 1.7 0 3.4 0.3 1.6 0.3 3.1 0.9 3.1 1.3 5.3 3.6 2.1 2.1 3.5 5.8 0.6 1.8 0.9 3.7 0.3 2 0.3 4.1 0 1-0.4 1.7-0.5 0.7-1.7 0.7h-27.5q0 2.2 0.2 4 0.3 1.8 0.8 3.4 1 3.3 2.7 5.3 0.7 0.7 1.3 1.3 0.7 0.6 1.4 1 0.8 0.5 1.6 0.8 1.3 0.6 2.7 0.9 1.4 0.3 2.9 0.3 2.8 0 4.9-0.7 2.5-0.8 3.5-1.4 0.4-0.2 0.7-0.4 0.4-0.2 0.6-0.3 0.3-0.2 0.6-0.4 0.2-0.2 0.3-0.3 0.3-0.2 0.5-0.3 0.2-0.2 0.4-0.3 0.2-0.1 0.5-0.2 0.2 0 0.5 0 0.5 0 0.9 0.2 0.4 0.2 0.7 0.5l1 1.3 0.5 0.6-0.5 0.6q-0.9 1.2-2.8 2.4-1.6 1.1-3.7 1.9-2.1 0.7-4.3 1.2-1.8 0.4-4.6 0.4-4.5 0-7.8-1.4-3.6-1.6-6-4.4-2.5-2.8-3.9-6.9-0.7-2.1-1-4.4-0.4-2.3-0.4-4.9zm6.1-4.1h23.9q-0.1-2.4-0.8-4.5-0.6-2-2.2-3.9-1.4-1.6-3.5-2.4-2.2-0.9-4.5-0.9-1.5 0-2.7 0.2-1.3 0.2-2.5 0.7-2.2 0.8-3.8 2.5-0.6 0.6-1.1 1.2-0.5 0.6-0.9 1.3-0.4 0.7-0.7 1.4-0.8 2-1.2 4.4z"/>
	<g id="Layer">
		<g id="Layer">
			<g id="Layer">
				<path id="Layer" class="s1" d="m31.6 180.6v-2.5h42.5v13.6h-3q-1.2 0-1.9-0.8-0.7-0.8-0.7-2v-0.1q0-0.2-0.1-1 0-0.8-0.1-2.3-0.1-1.1-0.2-2.1h-23.7v20.8h22.4v5.2h-22.4v21.5h23.7q0.1-0.2 0.1-0.4 0.1-0.9 0.1-1.4 0.1-1.1 0.1-2.4 0-0.4 0-0.8l0.1-0.3q0-1.3 0.7-2.1 0.7-0.8 1.9-0.8h3v13.6h-42.4v-2.6q0-1 0.7-1.7 0.6-0.6 1.7-0.7h0.9q0.1 0 0.6 0 0.7-0.1 1.1-0.1 0.2 0 0.3 0 0.2 0 0.4 0 0.2 0 0.5 0 0.1 0 0.2 0 0.2 0 0.3 0v-48.1q-0.3 0-0.5 0-0.9 0-1.2 0-0.1 0-0.3 0-0.2 0-0.3 0-0.2 0-0.5 0-0.1 0-0.3-0.1-0.1 0-0.2 0-0.1 0-0.1 0h-0.9q-1.1-0.1-1.8-0.7-0.7-0.6-0.7-1.7z"/>
			</g>
		</g>
	</g>
	<g id="Layer">
		<g id="Layer">
			<g id="Layer">
				<path id="Layer" class="s1" d="m81.2 235.3v-1.6q0-1 0.7-1.7 0.6-0.6 1.7-0.7h1.9q0.3 0 1-0.1 0.2 0 0.4 0v-31.4q0 0-0.1 0-0.3 0-0.5 0-0.3 0-0.4 0h-1.2l-0.5-0.1h-0.6q-1.1-0.1-1.7-0.7-0.7-0.6-0.7-1.7v-2.5h8.8q0.2 0 0.5 0.1 0.3 0 0.5 0.2 0.3 0.1 0.6 0.3 0.4 0.5 0.5 1.3l0.2 3.6q0.8-0.8 1.5-1.4 0.8-0.7 1.7-1.3 0.8-0.6 1.8-1.2 3.8-2.2 8.5-2.2 3.5 0 6.1 1.1 0.7 0.3 1.3 0.6 0.6 0.4 1.2 0.8 0.5 0.3 1 0.8 0.6 0.5 1 1 1.7 2 2.7 5.1 0.9 3.1 0.9 6.4v21.2q0.1 0 0.1 0 0.2 0 0.4 0 0.1 0 0.3 0 0.1 0 0.1 0 0.4 0 0.8 0.1h0.4 1.1q1.1 0.1 1.8 0.7 0.7 0.7 0.7 1.7v2.6h-11.5v-26.3q0-5.2-2.3-8.1-2.2-2.7-7.1-2.7-1.2 0-2.4 0.2-1.1 0.2-2.2 0.6-1.1 0.4-2.1 1-1.5 1-2.9 2.2-1.4 1.3-2.6 2.8v25.2q0.1 0 0.1 0 0.3 0 0.6 0 0.2 0 0.3 0 0.4 0 0.8 0.1h0.4 1.2q1 0.1 1.7 0.7 0.7 0.7 0.7 1.7v2.6h-17.2z"/>
			</g>
		</g>
	</g>
	<g id="Layer">
		<g id="Layer">
			<g id="Layer">
				<path id="Layer" fill-rule="evenodd" class="s1" d="m129.4 239.4q0-3.4 2.4-6 1.6-1.8 4-2.9-0.9-0.6-1.5-1.2-1.3-1.6-1.3-4.1 0-0.2 0-0.4 0-0.2 0-0.4 0.1-0.1 0.1-0.3 0-0.2 0-0.4 0.1-0.1 0.1-0.3 0.1-0.2 0.2-0.3 0.1-0.5 0.4-1 0.2-0.5 0.6-1 0.5-0.9 1.7-1.9 0.1-0.1 0.2-0.2 0.1-0.1 0.2-0.2 0.1-0.1 0.2-0.2 0.2-0.1 0.3-0.2-2.1-1.6-3.4-3.8-1.7-3-1.7-6.8 0-2.8 1.1-5.6 0.4-1.2 1.2-2.3 0.8-1.1 1.9-2 2-1.8 4.8-2.8 2.8-1 6.1-1 2.6 0 5 0.7 1.1 0.3 2.1 0.7 1 0.5 1.9 1h10.9v2.3q0 0.7-0.4 1.2-0.5 0.7-1.6 0.8l-4.5 0.4q0.2 0.3 0.4 0.6 0.1 0.3 0.2 0.6 0.2 0.3 0.3 0.5 0.1 0.3 0.1 0.6 0.3 1 0.5 2 0.1 1.1 0.1 2.3 0 3-1.1 5.6-1.1 2.6-3.1 4.3-1.9 1.7-4.8 2.7-0.9 0.3-1.8 0.5-1 0.3-2.1 0.3-1 0.1-2.1 0.1-1.8 0-3.3-0.2-1.5-0.2-2.8-0.7-0.1 0.1-0.1 0.2-0.6 0.3-1.1 0.8-0.4 0.4-0.8 0.8-0.7 1.1-0.7 2 0 1.2 0.8 1.9 0.9 0.7 2.8 1.1 1.2 0.3 4.3 0.5 0.8 0 2.5 0.1 1.8 0.2 2.6 0.2 2.6 0.1 5.2 0.4 1.4 0.3 2.6 0.6 1.2 0.3 2.3 0.9 2.4 1.1 3.5 2.8 1.3 1.8 1.3 4.8 0 2.6-1.3 5.1-1.2 2.4-3.9 4.4-2.4 1.8-5.8 2.9-3.7 1.2-7.8 1.2-4.1 0-7.6-0.9-3.1-0.9-5.5-2.5-0.8-0.5-1.4-1.1-0.7-0.6-1.2-1.2-0.5-0.6-0.9-1.3-1.3-2.3-1.3-4.7zm5.5-0.3q0 1.6 0.7 2.7 0.8 1.3 2.3 2.3 1.8 1.1 4 1.6 2.5 0.6 5.5 0.6 0.8 0 1.5-0.1 0.8 0 1.4-0.1 0.7-0.1 1.3-0.2 0.6 0 1.2-0.2 1.2-0.3 2.2-0.8 1.1-0.4 2.1-1 1.6-1 2.7-2.7 0.9-1.5 0.9-3.2 0-1.4-0.8-2.4-0.8-1-2.1-1.4-0.5-0.2-0.9-0.3-0.4-0.1-0.8-0.2-0.4-0.2-0.7-0.2-0.4-0.1-0.7-0.1-0.2-0.1-0.5-0.1-1.5-0.2-4.4-0.4-0.8 0-2.3-0.1-0.8 0-1.4 0-0.5-0.1-0.9-0.1-2.2-0.1-4.2-0.4-1.1 0.4-2.5 1.2-0.7 0.3-1.9 1.6-0.9 0.7-1.3 1.8-0.4 1.2-0.4 2.2zm2.4-31.2q0 2.1 0.6 3.7 0.3 0.8 0.8 1.5 0.5 0.7 1.1 1.2 1.4 1.3 3.1 1.9 1.8 0.6 4.1 0.6 0.4 0 0.7 0 0.4 0 0.8 0 0.4-0.1 0.7-0.1 0.4-0.1 0.7-0.1 0.3-0.1 0.7-0.2 0.3-0.1 0.6-0.2 1.7-0.6 3-1.8 0.6-0.7 1.1-1.3 0.4-0.7 0.7-1.5 0.7-1.7 0.7-3.8 0-1.9-0.7-3.7-0.1-0.4-0.3-0.7-0.2-0.4-0.4-0.7-0.3-0.4-0.6-0.7-0.2-0.3-0.6-0.7-0.4-0.4-0.9-0.7-0.5-0.3-1-0.6-0.5-0.3-1.1-0.5-0.9-0.3-2-0.5-1-0.2-2.1-0.2-1.1 0-2.1 0.2-1 0.2-2 0.5-1.7 0.6-3.1 1.8-0.6 0.6-1.1 1.3-0.5 0.7-0.8 1.5-0.2 0.6-0.3 1.2-0.2 0.6-0.2 1.2-0.1 0.7-0.1 1.4z"/>
			</g>
		</g>
	</g>
	<g id="Layer">
		<g id="Layer">
			<g id="Layer">
				<path id="Layer" class="s1" d="m171 207.2q0-6.8 2.1-12.1 2.2-5.6 5.8-9.4 3.3-3.6 9.1-6.1 5.1-2.1 11.5-2.1 8.4 0 18.3 4l0.7 0.3v14.3h-2.9q-1.2 0-1.9-0.8-0.7-0.8-0.8-2 0-0.1 0-0.2 0-0.1 0-0.2 0-0.2 0-0.4 0-0.2 0-0.5l-0.2-3.1q-0.1-1.8-0.2-3.7-5.5-2.3-13-2.3-5 0-9 1.7-4.2 1.8-7.1 4.8-0.9 1-1.8 2.2-0.8 1.2-1.5 2.6-0.7 1.3-1.3 2.8-1.6 4.5-1.6 10.2 0 5.8 1.6 10.3 0.3 0.9 0.7 1.7 0.4 0.9 0.8 1.6 0.4 0.8 0.9 1.6 0.5 0.7 1 1.4 0.6 0.7 1.2 1.3 1.4 1.6 3.1 2.8 1.7 1.1 3.6 1.9 1.3 0.6 2.6 0.9 1.4 0.4 2.9 0.6 1.5 0.2 3.1 0.2 2.6 0 5.2-0.4 0.5-0.1 1-0.2 0.6-0.1 1.1-0.2 0.5-0.2 1-0.4 0.5-0.1 1.1-0.3 1-0.5 1.9-0.9 0.8-0.4 1.5-1 2.1-1.4 3.3-2.5l0.2-0.1q0.1-0.1 0.2-0.3l0.1-0.1h0.2q0.3-0.2 0.8-0.2 0.7 0 1.3 0.6l1.6 1.7 0.7 0.6-0.7 0.7q-1.5 1.7-3.9 3.5-1.1 0.8-2.2 1.4-1.2 0.7-2.4 1.2-2.8 1.2-5.6 1.8-1.5 0.3-3.1 0.4-1.7 0.1-3.6 0.1-5.9 0-11-2.1-5.3-2.2-8.7-6-3.7-4.2-5.6-9.5-2.1-5.6-2.1-12.1z"/>
			</g>
		</g>
	</g>
	<g id="Layer">
		<g id="Layer">
			<g id="Layer">
				<path id="Layer" fill-rule="evenodd" class="s1" d="m222.3 215.5q0-4.3 1.3-8.7 1.3-4.1 3.7-6.8 2.5-2.7 6.1-4.3 3.6-1.6 8-1.6 1.1 0 2.1 0.1 1 0.1 2 0.3 1 0.2 2 0.5 0.9 0.3 1.8 0.7 3.7 1.6 6 4.3 0.7 0.8 1.3 1.6 0.5 0.8 1 1.6 0.5 0.9 0.8 1.8 0.4 0.9 0.7 1.8 0.4 1.4 0.7 2.8 0.3 1.4 0.4 2.9 0.1 1.5 0.1 3 0 4.7-1.2 8.7-1.2 3.8-3.8 6.7-1.1 1.4-2.6 2.5-1.6 1-3.4 1.8-3.4 1.6-7.9 1.6-1.5 0-2.9-0.2-1.4-0.2-2.7-0.5-1.3-0.4-2.4-0.9-3.6-1.5-6.1-4.2-2.3-2.6-3.7-6.8-0.4-1.4-0.7-2.9-0.3-1.4-0.4-2.9-0.2-1.4-0.2-2.9zm5.9 0q0 1.3 0.1 2.5 0.1 1.3 0.3 2.3 0.2 1.1 0.5 2.1 0.9 3.3 2.4 5.2 1.7 2.1 4.1 3.2 1.3 0.5 2.7 0.8 1.4 0.3 3.1 0.3 3.2 0 5.7-1.1 0.6-0.3 1.2-0.6 0.5-0.3 1-0.7 0.5-0.4 1-0.9 0.5-0.5 0.9-1 1.7-2.1 2.5-5.2 0.8-3.2 0.8-6.9 0-1.8-0.2-3.6-0.2-1.7-0.6-3.3-0.4-1.5-1-2.8-0.7-1.3-1.5-2.3-1.8-2.3-4.1-3.3-2.4-1.1-5.7-1.1-3.4 0-5.8 1.1-1.1 0.5-2.2 1.3-1 0.8-1.9 2-0.5 0.6-0.9 1.3-0.5 0.8-0.8 1.7-0.4 1-0.7 2.2-0.5 1.4-0.7 3.1-0.2 1.7-0.2 3.7z"/>
			</g>
		</g>
	</g>
	<g id="Layer">
		<g id="Layer">
			<g id="Layer">
				<path id="Layer" fill-rule="evenodd" class="s1" d="m264.4 215.6q0-0.8 0.1-1.5 0-0.8 0.1-1.5 0-0.8 0.1-1.4 0.1-0.7 0.2-1.4 0.1-0.7 0.3-1.3 0.1-0.6 0.4-1.3 1.3-4.1 3.5-6.8 2.5-3 5.7-4.6 3.5-1.7 7.8-1.7 0.5 0 1 0.1 0.4 0 0.9 0 0.4 0 0.9 0.1 0.4 0.1 0.8 0.1 0.4 0.1 0.8 0.2 0.5 0.1 0.9 0.2 0.4 0.2 0.7 0.3 0.4 0.2 0.8 0.3 0.3 0.2 0.7 0.3 2 1.1 3.7 2.6v-16.8q-0.1 0-0.1 0-0.7 0-0.9 0h-1.2-0.5l-0.2-0.1h-0.4q-1.1-0.1-1.8-0.7-0.7-0.6-0.7-1.7v-2.6h11.5v54.8h0.7q0.3 0 0.8 0.1 0.3 0 0.4 0h1q1 0.1 1.7 0.7 0.7 0.7 0.7 1.7v2.6h-8.4q-0.8 0-1.3-0.5-0.7-0.5-0.8-1.4l-0.2-3.9q-2.2 2.5-4.8 4-1.8 1.2-4 1.7-2.1 0.6-4.5 0.6-7.8 0-12.1-5.4-4.3-5.2-4.3-15.8zm5.9 0q0 8.5 3 12.5 2.8 3.7 8.6 3.7 3.6 0 6.6-1.9 2.9-1.9 5.3-5.1v-20.3q-0.4-0.5-0.9-1.1-0.4-0.5-0.8-0.9-0.5-0.5-1-0.9-0.4-0.4-0.9-0.7-0.5-0.3-1-0.6-2.5-1.3-5.8-1.3-1.7 0-3.2 0.3-1.4 0.3-2.5 0.8-1.2 0.6-2.2 1.5-1 0.8-1.9 2-0.8 0.9-1.4 2.2-0.6 1.3-1.1 3-0.4 1.5-0.6 3.2-0.2 1.7-0.2 3.6z"/>
			</g>
		</g>
	</g>
	<g id="Layer">
		<g id="Layer">
			<g id="Layer">
				<path id="Layer" fill-rule="evenodd" class="s1" d="m308.9 214.7q0-4.1 1.3-8.2 0.7-1.8 1.6-3.4 0.9-1.6 2.1-3.1 2.4-2.8 5.9-4.3 1.9-0.8 3.9-1.2 2-0.4 4.1-0.4 1.7 0 3.4 0.3 1.6 0.4 3.1 1 3.1 1.2 5.3 3.5 2.1 2.2 3.5 5.9 0.6 1.7 0.9 3.6 0.3 2 0.3 4.1 0 1-0.4 1.7-0.5 0.8-1.7 0.8h-27.5q0 2.1 0.2 3.9 0.3 1.8 0.8 3.4 1 3.3 2.7 5.3 0.7 0.7 1.3 1.3 0.7 0.6 1.4 1.1 0.7 0.4 1.6 0.8 1.3 0.6 2.7 0.8 1.4 0.3 2.9 0.3 2.7 0 4.9-0.7 2.5-0.8 3.5-1.3 0.4-0.2 0.7-0.4 0.4-0.2 0.6-0.4 0.3-0.2 0.6-0.4 0.2-0.1 0.3-0.3 0.3-0.1 0.5-0.3 0.2-0.1 0.4-0.2 0.2-0.2 0.5-0.2 0.2-0.1 0.5-0.1 0.5 0 0.9 0.2 0.4 0.2 0.7 0.6l1 1.2 0.5 0.6-0.5 0.6q-0.9 1.3-2.8 2.5-1.6 1.1-3.7 1.8-2.1 0.8-4.3 1.2-1.8 0.5-4.6 0.5-4.5 0-7.8-1.5-3.6-1.6-6-4.3-2.5-2.8-3.9-7-0.7-2.1-1-4.4-0.4-2.3-0.4-4.9zm6.1-4.1h23.9q-0.1-2.3-0.8-4.5-0.6-2-2.2-3.9-1.4-1.5-3.5-2.4-2.2-0.9-4.5-0.9-1.5 0-2.7 0.2-1.3 0.3-2.5 0.7-2.2 0.9-3.8 2.5-0.6 0.6-1.1 1.2-0.5 0.6-0.9 1.3-0.4 0.7-0.7 1.5-0.8 2-1.2 4.3z"/>
			</g>
		</g>
	</g>
	<path id="Layer" class="s2" d="m157.7 130.8c-0.9-0.1-1.8-0.3-2.5-0.9l-45.1-35.5c-1-0.8-1.5-1.9-1.5-3.2 0-1.2 0.5-2.4 1.5-3.1l45.1-35.5c0.7-0.6 1.6-0.9 2.5-0.9 1.2 0 2.4 0.5 3.1 1.5 0.7 0.9 1 1.9 0.9 3-0.1 1-0.7 2-1.5 2.6l-41.2 32.4 41.2 32.4c0.8 0.7 1.4 1.6 1.5 2.7 0.1 1-0.2 2.1-0.9 2.9-0.7 1-1.9 1.5-3.1 1.5z"/>
	<g id="Clip-Path" clip-path="url(#cp1)">
		<g id="Layer">
			<path id="Layer" fill-rule="evenodd" class="s3" d="m162.2 52.2c0.9 1.2 1.4 2.7 1.2 4.2-0.2 1.5-1 2.8-2.2 3.8l-39.4 31 39.4 31.1c1.2 0.9 2 2.3 2.2 3.8 0.2 1.5-0.3 3-1.2 4.2-1.1 1.4-2.7 2.2-4.5 2.2-1.3 0-2.5-0.5-3.5-1.3l-45.2-35.5c-1.4-1.1-2.2-2.7-2.2-4.5 0-1.7 0.8-3.4 2.2-4.5l45.2-35.5c1-0.8 2.2-1.2 3.5-1.2 1.8 0 3.4 0.8 4.5 2.2zm-5.9 1.7l-45.2 35.5c-0.5 0.5-0.8 1.1-0.8 1.8 0 0.7 0.3 1.4 0.8 1.8l45.2 35.6c0.4 0.3 0.9 0.4 1.4 0.4 0.7 0 1.4-0.3 1.8-0.8 0.8-1 0.6-2.5-0.4-3.3l-42.8-33.7 42.8-33.7c1-0.8 1.2-2.2 0.4-3.2-0.4-0.6-1.1-0.9-1.8-0.9-0.5 0-1 0.2-1.4 0.5z"/>
		</g>
	</g>
	<path id="Layer" class="s2" d="m217.3 130.8c-1.2-0.1-2.4-0.6-3.2-1.6-1.3-1.7-1-4.2 0.7-5.6l41.2-32.4-41.2-32.4c-1.7-1.3-2-3.8-0.7-5.6 0.8-1 2-1.5 3.2-1.5 0.9 0 1.8 0.3 2.5 0.9l45.1 35.5c1 0.7 1.5 1.9 1.5 3.1 0 1.3-0.5 2.4-1.5 3.2l-45.1 35.5c-0.7 0.6-1.6 0.8-2.5 0.8z"/>
	<g id="Clip-Path" clip-path="url(#cp2)">
		<g id="Layer">
			<path id="Layer" fill-rule="evenodd" class="s3" d="m220.8 51.2l45.2 35.5c1.4 1.1 2.1 2.8 2.1 4.5 0 1.8-0.7 3.4-2.1 4.5l-45.2 35.5c-1 0.8-2.2 1.3-3.5 1.3-1.8 0-3.4-0.8-4.5-2.2-1.9-2.5-1.5-6.1 1-8l39.4-31.1-39.4-31c-2.5-2-2.9-5.6-1-8 1.1-1.4 2.7-2.2 4.5-2.2 1.3 0 2.5 0.4 3.5 1.2zm-5.3 3.1c-0.8 1-0.6 2.4 0.4 3.2l42.8 33.7-42.8 33.7c-1 0.8-1.2 2.3-0.4 3.3 0.4 0.5 1.1 0.8 1.8 0.8 0.5 0 1-0.1 1.4-0.4l45.2-35.6c0.5-0.4 0.8-1.1 0.8-1.8 0-0.7-0.3-1.3-0.8-1.8l-45.2-35.5c-0.4-0.3-0.9-0.5-1.4-0.5-0.7 0-1.4 0.3-1.8 0.9z"/>
		</g>
	</g>
	<path id="Layer" class="s2" d="m165.1 152.2q-0.8 0-1.5-0.3c-1-0.4-1.8-1.1-2.2-2.1-0.4-1-0.5-2.1-0.1-3l44.1-114c0.6-1.5 2.1-2.5 3.8-2.5q0.7 0 1.4 0.2c2.1 0.8 3.1 3.1 2.3 5.2l-44.1 113.9c-0.6 1.6-2.1 2.6-3.7 2.6z"/>
	<g id="Clip-Path" clip-path="url(#cp3)">
		<g id="Layer">
			<path id="Layer" fill-rule="evenodd" class="s3" d="m211.2 28.9c3 1.2 4.4 4.5 3.3 7.4l-44.1 114c-0.9 2.1-3 3.6-5.3 3.6q-1.1 0-2.1-0.4c-1.4-0.5-2.5-1.6-3.2-3-0.6-1.4-0.6-2.9-0.1-4.4l44.1-113.9c0.9-2.2 3-3.6 5.4-3.6q1 0 2 0.3zm-4.2 4.5l-44.1 114c-0.4 1.1 0.1 2.5 1.3 2.9q0.4 0.2 0.9 0.2c0.9 0 1.8-0.6 2.1-1.5l44.1-113.9c0.5-1.2-0.1-2.5-1.3-3q-0.4-0.1-0.8-0.1c-1 0-1.8 0.5-2.2 1.4z"/>
		</g>
	</g>
	<g id="Layer">
		<g id="Layer">
			<g id="Layer">
				<path id="Layer" class="s2" d="m88.9 309.4q-4.7 0-7.5-1-2.9-1-4.3-2.7-1.5-1.8-2-4.1h10.1q1.2 1.7 3.7 1.7 2.4 0 3.5-1.7 0.1-0.1 0.1-0.2 0-0.5-1.1-0.7-1.1-0.2-3.4-0.3-2.9-0.2-6-0.6-7-1.1-7-5.7 0-0.3 0.1-0.8 0.5-2.2 2-4 1.4-1.7 4.3-2.7 2.8-1 7.5-1 4.6 0 7.4 1 2.8 1 4.3 2.7 1.5 1.8 2 4h-10.2q-1.1-1.6-3.5-1.6-2.5 0-3.7 1.6 0 0.2 0 0.3 0 0.4 1.1 0.5 1 0.2 3.2 0.3 2.1 0.2 4.5 0.5 2.4 0.3 4.5 1 2.1 0.7 3.3 2.1 0.9 1 0.9 2.7 0 0.4-0.1 0.9-0.5 2.3-2 4.1-1.5 1.7-4.3 2.7-2.8 1-7.4 1z"/>
			</g>
		</g>
	</g>
	<g id="Layer">
		<g id="Layer">
			<g id="Layer">
				<path id="Layer" class="s2" d="m125 308.9h-9.6v-10.8l-12.4-12.1h10.6l6.6 6.9 6.7-6.9h10.6l-12.5 12.1z"/>
			</g>
		</g>
	</g>
	<g id="Layer">
		<g id="Layer">
			<g id="Layer">
				<path id="Layer" class="s2" d="m151.6 309.4q-4.7 0-7.5-1-2.8-1-4.3-2.7-1.5-1.8-2-4.1h10.2q1.1 1.7 3.6 1.7 2.4 0 3.6-1.7 0.1-0.1 0.1-0.2 0-0.5-1.2-0.7-1.1-0.2-3.4-0.3-2.8-0.2-6-0.6-7-1.1-7-5.7 0-0.3 0.1-0.8 0.5-2.2 2-4 1.5-1.7 4.3-2.7 2.8-1 7.5-1 4.6 0 7.4 1 2.9 1 4.4 2.7 1.4 1.8 1.9 4h-10.1q-1.2-1.6-3.6-1.6-2.5 0-3.6 1.6-0.1 0.2-0.1 0.3 0 0.4 1.1 0.5 1.1 0.2 3.2 0.3 2.1 0.2 4.5 0.5 2.4 0.3 4.5 1 2.1 0.7 3.3 2.1 0.9 1 0.9 2.7 0 0.4-0.1 0.9-0.5 2.3-1.9 4.1-1.5 1.7-4.4 2.7-2.8 1-7.4 1z"/>
			</g>
		</g>
	</g>
	<g id="Layer">
		<g id="Layer">
			<g id="Layer">
				<path id="Layer" class="s2" d="m185 308.9h-9.6v-17.2h-9v-5.7h27.5v5.7h-8.9z"/>
			</g>
		</g>
	</g>
	<g id="Layer">
		<g id="Layer">
			<g id="Layer">
				<path id="Layer" class="s2" d="m223.7 308.9h-27.5v-22.9h26.2v5.7h-16.7v3.6h14.1v4.4h-14.1v3.5h18z"/>
			</g>
		</g>
	</g>
	<g id="Layer">
		<g id="Layer">
			<g id="Layer">
				<path id="Layer" class="s2" d="m269.7 308.9h-9.6v-14.6l-8.6 14.6h-7.1l-8.6-14.6v14.6h-9.6v-22.9h11.4l10.4 16.4 10.3-16.4h11.4z"/>
			</g>
		</g>
	</g>
	<g id="Layer">
		<g id="Layer">
			<g id="Layer">
				<path id="Layer" class="s2" d="m286.1 309.4q-4.6 0-7.5-1-2.8-1-4.3-2.7-1.5-1.8-2-4.1h10.2q1.1 1.7 3.6 1.7 2.5 0 3.6-1.7 0.1-0.1 0.1-0.2 0-0.5-1.1-0.7-1.2-0.2-3.5-0.3-2.8-0.2-5.9-0.6-7-1.1-7-5.7 0-0.3 0-0.8 0.5-2.2 2-4 1.5-1.7 4.3-2.7 2.9-1 7.5-1 4.6 0 7.5 1 2.8 1 4.3 2.7 1.5 1.8 2 4h-10.2q-1.1-1.6-3.6-1.6-2.5 0-3.6 1.6-0.1 0.2-0.1 0.3 0 0.4 1.1 0.5 1.1 0.2 3.2 0.3 2.2 0.2 4.6 0.5 2.4 0.3 4.5 1 2.1 0.7 3.2 2.1 1 1 1 2.7 0 0.4-0.1 0.9-0.5 2.3-2 4.1-1.5 1.7-4.3 2.7-2.9 1-7.5 1z"/>
			</g>
		</g>
	</g>
</svg>